<?xml version="1.0" encoding="utf-8"?>
<!-- Generator: Adobe Illustrator 17.0.1, SVG Export Plug-In . SVG Version: 6.00 Build 0)  -->
<!DOCTYPE svg PUBLIC "-//W3C//DTD SVG 1.1//EN" "http://www.w3.org/Graphics/SVG/1.1/DTD/svg11.dtd">
<svg version="1.1" xmlns="http://www.w3.org/2000/svg" xmlns:xlink="http://www.w3.org/1999/xlink" x="0px" y="0px" width="88px"
	 height="88px" viewBox="0 0 88 88" enable-background="new 0 0 88 88" xml:space="preserve">
<g id="img" display="none">
</g>
<g id="Layer_3">
</g>
<g id="help">
</g>
<g id="main">
	<g>
		<circle fill="none" stroke="#000000" stroke-width="2.323" stroke-miterlimit="10" cx="34.3" cy="47.8" r="4.5"/>
		<circle fill="none" stroke="#000000" stroke-width="2.323" stroke-miterlimit="10" cx="50.6" cy="47.8" r="4.5"/>
		
			<polyline fill="none" stroke="#000000" stroke-width="2.323" stroke-linecap="round" stroke-linejoin="round" stroke-miterlimit="10" points="
			19.8,18.1 28.4,37.4 56.4,37.4 56.4,11.7 65.2,10.1 		"/>
		
			<line fill="none" stroke="#000000" stroke-width="1.6305" stroke-linecap="round" stroke-linejoin="round" stroke-miterlimit="10" x1="40.4" y1="11.9" x2="40.4" y2="23.1"/>
		
			<line fill="none" stroke="#000000" stroke-width="1.6305" stroke-linecap="round" stroke-linejoin="round" stroke-miterlimit="10" x1="46.1" y1="17.5" x2="34.9" y2="17.5"/>
	</g>
	<g>
		<path fill="#333333" d="M10.7,79.7c0.1,0.4,0,0.5-0.4,0.5c-0.2,0-0.3,0-0.4-0.1c-0.1-0.1-0.2-0.2-0.2-0.4c0-0.2-0.1-0.3-0.1-0.6
			c-0.1-0.2-0.1-0.4-0.2-0.5c0-0.1-0.3-0.1-0.7-0.1H8.7c0,0-0.1,0-0.1,0c-0.1,0-0.1,0-0.3,0c-0.1,0-0.2,0-0.2,0c-0.1,0-0.2,0-0.3,0
			c-0.2,0-0.4,0-0.8,0c-0.4,0-0.6,0-0.6,0H6.1H6c-0.3,0-0.5,0-0.5,0.1c-0.1,0.1-0.1,0.3-0.2,0.5c-0.1,0.2-0.1,0.4-0.1,0.6
			c0,0.2-0.1,0.3-0.2,0.4c-0.1,0-0.2,0.1-0.4,0.1c-0.3,0-0.4-0.3-0.2-0.9c0.1-0.3,0.1-0.4,0.1-0.4c0.2-0.5,0.3-0.8,0.6-0.9
			c0.1,0,0.1-0.1,0.2-0.1c0.1,0,0.2,0,0.2,0c0,0,0-0.1,0.2-0.4s0.2-0.7,0.3-1.3c0.2-0.8,0.3-1.5,0.3-2.2l0.1-5.4
			c0-1.7,0.1-2.6,0.2-2.7c0.2-0.2,0.5-0.3,1.1-0.3c0.9,0,1.4,0.1,1.6,0.3c0.2,0.3,0.4,1.2,0.3,2.7l0,2.2c0,0.1,0,1.7,0,4.8
			c0,1.1,0,1.7,0,1.9c0,0.1,0,0.1,0,0.1c0,0.1,0,0.1,0,0.1c0.2,0,0.3,0.1,0.4,0.2c0.2,0.1,0.4,0.5,0.6,1
			C10.6,79.2,10.7,79.5,10.7,79.7z M7.9,77.8c0,0,0.2,0,0.4,0c0.1,0,0.1,0,0.2-0.1c0.1-0.1,0.1-0.5,0.1-1.3c0-0.7,0-1.1,0-1.3
			c0-0.5,0-1.8,0-3.9l0-1c0-1,0-1.6,0-1.9c0-1.1-0.1-1.7-0.1-1.8c0,0-0.1-0.1-0.1-0.1c0,0-0.1,0-0.1,0c-0.1,0-0.2,0-0.2,0
			c-0.1,0-0.1,0-0.2,0c-0.1,0-0.2,0-0.2,0c-0.1,0-0.1,0-0.2,0.1c-0.1,0.1-0.1,0.7-0.1,1.8c0,0.3,0,1-0.1,2.2L7,74.1
			c0,0.7-0.1,1.5-0.3,2.3c-0.2,0.8-0.3,1.3-0.4,1.4c0,0,0.2,0.1,0.7,0C7.5,77.8,7.8,77.8,7.9,77.8z"/>
		<path fill="#333333" d="M11.9,78c-0.3-0.4-0.4-1.2-0.5-2.3c0-1.1,0-2,0.1-2.7c0.1-0.5,0.2-0.9,0.5-1.2s0.6-0.6,1-0.7
			c0.4-0.1,0.8-0.1,1.1,0c0.2,0.1,0.4,0.3,0.6,0.5c0.4,0.4,0.5,1.3,0.5,2.7c0,1.4,0,2.2,0,2.4c0,0.6-0.2,1-0.5,1.4
			c-0.3,0.4-0.7,0.5-1.1,0.5c-0.4,0-0.7,0-0.8-0.1C12.4,78.6,12.1,78.3,11.9,78z M12.5,73.1c-0.1,0.7-0.1,1.4-0.1,2.4
			c0,1.2,0.1,1.9,0.3,2.1c0.2,0.2,0.4,0.3,0.6,0.4c0.2,0,0.4,0,0.5-0.1c0.3-0.3,0.5-1.3,0.4-3.1c0-1.4-0.1-2.3-0.3-2.5
			c-0.2-0.3-0.4-0.4-0.6-0.4c-0.1,0-0.3,0.1-0.5,0.3C12.7,72.4,12.6,72.7,12.5,73.1z"/>
		<path fill="#333333" d="M19.5,72c0.3,0.3,0.5,1.2,0.6,2.4c0.1,1,0.1,1.8,0,2.4c-0.1,0.6-0.4,1.1-0.9,1.5c-0.2,0.2-0.6,0.3-1,0.4
			c-0.6,0.1-1.2-0.1-1.6-0.5c-0.3-0.3-0.4-1-0.4-1.9c0-3.2,0-5,0.1-5.4c0.2-0.8,0.5-1.4,1-1.8c0.2-0.2,0.5-0.4,0.9-0.5
			c0.3-0.1,0.5-0.2,0.6-0.4c0.2-0.2,0.3-0.3,0.5-0.2c0.1,0.1,0.2,0.2,0.2,0.3c0,0.3-0.1,0.6-0.3,0.7c-0.2,0.1-0.4,0.2-0.6,0.2
			c-0.3,0.1-0.6,0.3-0.9,0.5c-0.1,0.1-0.3,0.4-0.5,0.8c-0.1,0.1-0.1,0.3-0.1,0.6c0,0.1,0.2,0.1,0.7,0.1C18.5,71.3,19,71.5,19.5,72z
			 M19.1,76.6c0.3-2.2,0-3.7-0.7-4.4c-0.2-0.2-0.5-0.3-0.8-0.3c-0.2,0-0.3,0-0.4,0.1c-0.1,0.1-0.2,1-0.1,2.7c0,1.7,0.1,2.7,0.2,2.8
			c0.1,0.1,0.3,0.2,0.5,0.3c0.2,0,0.4,0,0.7-0.1C18.8,77.5,19,77.1,19.1,76.6z"/>
		<path fill="#333333" d="M25.1,78c0.1,0,0.3,0.1,0.4,0.2c0.1,0.1,0.1,0.2,0.1,0.3c0,0.2-0.2,0.3-0.5,0.3c-0.2,0-0.4,0-0.6-0.2
			c-0.1-0.1-0.2-0.2-0.2-0.2c0,0-0.1,0-0.1,0.1c-0.2,0.1-0.4,0.2-0.7,0.2c-0.8,0.1-1.3-0.1-1.6-0.6c-0.4-0.5-0.5-1.2-0.6-2.2
			c0-1.2,0-2.2,0-2.9c0.1-0.9,0.4-1.5,1.1-1.9c0.2-0.1,0.5-0.2,0.9-0.2c0.3,0,0.6,0.1,0.7,0.2c0.1,0.1,0.2,0.1,0.2,0.2
			c0,0,0,0,0-0.1c0,0,0-0.1,0-0.2c0-0.1,0.2-0.2,0.5-0.1c0.1,0,0.2,0,0.4,0.1c0,0.6,0.1,1,0.1,1.3c0,1.1,0.1,1.7,0.1,1.9
			c0,0.1,0,0.5,0,1.2c0,0.6,0,1.1,0,1.4c0,0.1,0,0.2,0,0.3s0,0.3,0,0.4c0,0.1,0,0.3,0,0.4C25,77.9,25,77.9,25.1,78
			C25,78,25,78,25.1,78z M24.1,77.6c0.1-0.1,0.1-1.1,0.1-3c0-1.5-0.1-2.4-0.4-2.6c-0.2-0.2-0.5-0.3-0.8-0.3c-0.2,0-0.4,0.1-0.6,0.4
			c-0.2,0.3-0.3,0.7-0.4,1.1c-0.1,0.6-0.1,1.4,0,2.4c0.1,1.2,0.2,1.9,0.4,2.1c0.2,0.2,0.5,0.3,0.9,0.2C23.8,77.8,24,77.7,24.1,77.6z
			"/>
		<path fill="#333333" d="M29.1,78.4c-0.2,0.1-0.5,0.2-1,0.3c-0.2,0-0.5,0-0.9,0c-0.6,0-0.9-0.1-1-0.2c0-0.1,0-1,0.1-2.6l-0.1-4.2
			c0-0.3,0-0.5,0-0.6c0.1-0.2,0.3-0.3,0.6-0.3c0.8,0,1.4,0.2,1.8,0.5c0.5,0.3,0.7,0.8,0.6,1.3c0,0.4-0.2,0.8-0.6,1.3
			c-0.2,0.1-0.3,0.2-0.4,0.3c0,0,0,0.1,0.1,0.1c0.3,0.1,0.6,0.3,0.7,0.4c0.2,0.2,0.4,0.5,0.6,0.9c0.2,0.5,0.2,0.9,0.2,1.3
			C29.8,77.6,29.5,78.1,29.1,78.4z M28.5,77.7c0.4-0.3,0.6-0.6,0.6-0.9c0.1-0.9-0.3-1.6-1.3-2c-0.1-0.1-0.2-0.1-0.4-0.1
			c-0.1,0-0.1,0.1-0.1,0.3c0,0.1,0,0.6-0.1,1.7C27.1,77.6,27,78,27.1,78C27.6,78.1,28.1,78,28.5,77.7z M27.2,74.1
			c0.1,0.1,0.3-0.1,0.6-0.3c0.2-0.2,0.4-0.4,0.5-0.5c0.1-0.2,0.1-0.4,0.1-0.6c0-0.3-0.1-0.6-0.3-0.8c-0.2-0.2-0.5-0.3-0.9-0.3
			c0,0,0,0,0,0c0,0,0,0.1,0,0.3C27.2,73.3,27.2,74.1,27.2,74.1z"/>
		<path fill="#333333" d="M33.6,73.6c-0.2,0.5-0.4,1.1-0.6,1.7c0,0.1-0.2,0.5-0.4,1.2c-0.2,0.5-0.3,0.9-0.4,1.1
			c-0.3,0.8-0.6,1.2-0.9,1.2c-0.3,0-0.4-0.2-0.5-0.5c0-0.1,0-0.4-0.1-0.9c0-0.1,0-0.4,0-0.7c0-0.4,0-0.7,0-0.8c0-2.7,0-4,0-4.1
			c0-0.3,0-0.4,0-0.5c0.1-0.2,0.2-0.2,0.4-0.2c0.3,0,0.4,0.2,0.4,0.5c0,0.2,0,0.8,0,1.8l-0.1,2.5c-0.1,0.6-0.1,0.9-0.1,1
			c0,0,0-0.1,0.1-0.2c0.1-0.2,0.1-0.4,0.2-0.6c0-0.1,0.2-0.5,0.4-1.1c0.2-0.6,0.3-1,0.4-1.1c0.1-0.2,0.2-0.6,0.4-1
			c0.1-0.4,0.2-0.7,0.3-0.8c0,0,0.1-0.1,0.1-0.3c0.1-0.1,0.1-0.3,0.1-0.3c0.1-0.3,0.3-0.5,0.5-0.5c0.2,0,0.4,0.1,0.4,0.4
			c0,0.1,0,0.3,0,0.5c0,0.3,0,1.3,0.1,3.1l0,2.9c0,0.4,0,0.7-0.1,0.8c-0.1,0.1-0.2,0.2-0.4,0.2s-0.3-0.1-0.4-0.3c0,0,0-0.8,0-2.4
			c0-0.7,0-1.3,0-1.9C33.6,74,33.6,73.8,33.6,73.6z"/>
		<path fill="#333333" d="M37.5,78.8c0,0-0.1,0-0.4-0.1c-0.1-0.1-0.2-1.5-0.2-4.4l0-1.7c0-0.7,0-1-0.1-1s-0.4,0-1.2,0
			c-0.2,0-0.3-0.1-0.4-0.2c0-0.1,0-0.2,0-0.3c0.1-0.1,0.7-0.2,2.1-0.2c1.1,0,1.6,0,1.7,0c0.4,0,0.5,0.1,0.5,0.3
			c0,0.2-0.1,0.4-0.4,0.4c-0.1,0-0.5,0-1,0h-0.3c-0.1,0.1-0.1,0.6-0.1,1.5C37.7,76.9,37.7,78.7,37.5,78.8
			C37.5,78.7,37.5,78.8,37.5,78.8z"/>
		<path fill="#333333" d="M42.7,74.2c0.4,0.4,0.6,1,0.7,1.8c0,0.9-0.1,1.5-0.4,1.9c-0.3,0.4-0.7,0.6-1,0.7c-0.2,0.1-0.6,0.1-1.3,0.1
			c-0.1,0-0.1,0-0.2,0c-0.2,0-0.3-0.1-0.3-0.2c0,0-0.1-0.4-0.1-1c0-0.2,0-2,0-5.3v-0.8c0-0.2,0-0.3,0-0.4c0-0.2,0.2-0.2,0.4-0.2
			s0.4,0.1,0.4,0.4c0,0,0,0.1,0,0.2c0,0.1,0,0.2,0,0.3c0,0.1,0,0.5,0,1.3c0,0.7,0,1,0,1c0,0,0,0,0,0c0.2-0.1,0.3-0.1,0.4-0.1
			C41.8,73.7,42.3,73.9,42.7,74.2z M42.5,75.8c-0.1-0.7-0.3-1.1-0.8-1.2c-0.3-0.1-0.6,0-0.8,0.1c0,0,0,0.8,0,2.3c0,0.6,0,1,0.1,1.1
			c0,0,0.1,0,0.4,0c0.3-0.1,0.6-0.2,0.8-0.5C42.4,77.2,42.6,76.6,42.5,75.8z"/>
		<path fill="#333333" d="M49.6,78.4c-0.2,0.1-0.5,0.2-1,0.3c-0.2,0-0.5,0-0.9,0c-0.6,0-0.9-0.1-1-0.2c0-0.1,0-1,0.1-2.6l-0.1-4.2
			c0-0.3,0-0.5,0-0.6c0.1-0.2,0.3-0.3,0.6-0.3c0.8,0,1.4,0.2,1.8,0.5c0.5,0.3,0.7,0.8,0.6,1.3c0,0.4-0.2,0.8-0.6,1.3
			c-0.2,0.1-0.3,0.2-0.4,0.3c0,0,0,0.1,0.1,0.1c0.3,0.1,0.6,0.3,0.7,0.4c0.2,0.2,0.4,0.5,0.6,0.9c0.2,0.5,0.2,0.9,0.2,1.3
			C50.3,77.6,50,78.1,49.6,78.4z M49,77.7c0.4-0.3,0.6-0.6,0.6-0.9c0.1-0.9-0.3-1.6-1.3-2c-0.1-0.1-0.2-0.1-0.4-0.1
			c-0.1,0-0.1,0.1-0.1,0.3c0,0.1,0,0.6-0.1,1.7c-0.1,0.8-0.1,1.2-0.1,1.2C48.1,78.1,48.6,78,49,77.7z M47.7,74.1
			c0.1,0.1,0.3-0.1,0.6-0.3c0.2-0.2,0.4-0.4,0.5-0.5C49,73,49,72.8,49,72.6c0-0.3-0.1-0.6-0.3-0.8c-0.2-0.2-0.5-0.3-0.9-0.3
			c0,0,0,0,0,0c0,0,0,0.1,0,0.3C47.7,73.3,47.7,74.1,47.7,74.1z"/>
		<path fill="#333333" d="M56.6,78.4c0,0-0.1-0.2-0.3-0.6c-0.2-0.5-0.4-0.8-0.6-1.2c-0.1-0.2-0.2-0.4-0.3-0.7
			c-0.2-0.3-0.3-0.5-0.3-0.5c-0.1-0.2-0.1-0.4-0.2-0.3s0,0.2,0,0.5c0,1-0.1,1.6-0.1,1.9c0,0,0,0.2,0,0.3c0,0.1,0,0.3,0,0.3
			c0,0.3-0.1,0.5-0.4,0.5c-0.3,0-0.5-0.2-0.5-0.6c0-0.8,0-1.3,0-1.4c0-0.2,0-0.5,0-0.9c0-0.4,0-0.6,0-0.7c0,0,0-0.7,0-1.9
			c0-1.2,0-1.8,0-1.8c0-0.2,0.1-0.4,0.4-0.4c0.2,0,0.3,0,0.4,0.1c0.1,0.1,0.1,0.5,0.1,1.3c0,1.3-0.1,1.9-0.1,1.9
			c0,0,0.1-0.1,0.1-0.2c0-0.1,0.1-0.2,0.2-0.4c0.1-0.2,0.2-0.3,0.3-0.4c0.1-0.2,0.3-0.5,0.5-0.7c0.1-0.2,0.2-0.4,0.3-0.5
			c0.1-0.1,0.1-0.2,0.2-0.3c0.1-0.1,0.1-0.2,0.2-0.3c0.1-0.2,0.3-0.3,0.5-0.3c0.3,0,0.5,0.1,0.5,0.3c0,0.2-0.2,0.4-0.4,0.7
			c0,0-0.1,0.2-0.3,0.4c-0.2,0.2-0.3,0.4-0.3,0.4c-0.7,0.9-1.1,1.5-1.1,1.8c0,0.2,0.3,0.8,0.9,1.7c0.6,1,1,1.6,1.1,2
			c0.1,0.3-0.1,0.4-0.4,0.4C57,78.8,56.8,78.7,56.6,78.4z"/>
		<path fill="#333333" d="M58.3,78c-0.3-0.4-0.4-1.2-0.5-2.3c0-1.1,0-2,0.1-2.7c0.1-0.5,0.2-0.9,0.5-1.2s0.6-0.6,1-0.7
			c0.4-0.1,0.8-0.1,1.1,0c0.2,0.1,0.4,0.3,0.6,0.5c0.4,0.4,0.5,1.3,0.5,2.7c0,1.4,0,2.2,0,2.4c0,0.6-0.2,1-0.5,1.4
			c-0.3,0.4-0.7,0.5-1.1,0.5c-0.4,0-0.7,0-0.8-0.1C58.9,78.6,58.6,78.3,58.3,78z M59,73.1c-0.1,0.7-0.1,1.4-0.1,2.4
			c0,1.2,0.1,1.9,0.3,2.1c0.2,0.2,0.4,0.3,0.6,0.4c0.2,0,0.4,0,0.5-0.1c0.3-0.3,0.5-1.3,0.4-3.1c0-1.4-0.1-2.3-0.3-2.5
			c-0.2-0.3-0.4-0.4-0.6-0.4c-0.1,0-0.3,0.1-0.5,0.3C59.2,72.4,59,72.7,59,73.1z"/>
		<path fill="#333333" d="M66,72.5c0.2,0.6,0.3,1.5,0.2,2.7c0,1.2-0.2,2.1-0.5,2.6c-0.4,0.7-1,1.1-1.7,1.1c-0.2,0-0.4,0-0.6-0.1
			c-0.2,0-0.2,0.5,0,1.6c0,1,0,1.6,0,1.9c0,0.4-0.2,0.6-0.6,0.6c-0.2,0-0.3-0.2-0.4-0.6c0-0.1,0-0.2,0-0.4c0-0.2,0-0.3,0-0.4
			c0-0.3,0-1.3,0-3.1c0-1.8,0-3.5,0-5.2c0,0,0-0.3,0-0.7c0-0.4,0-0.8,0-1.1c0-0.2,0.1-0.3,0.4-0.3c0.1,0,0.2,0,0.3,0.1
			c0.1,0,0.1,0.1,0.1,0.2s0.1,0.1,0.4-0.1c0.2-0.1,0.4-0.2,0.7-0.2c0.3,0,0.6,0.1,0.8,0.3C65.6,71.5,65.8,71.9,66,72.5z M65,77.4
			c0.2-0.5,0.4-1.3,0.3-2.6c0-1.1-0.1-1.9-0.3-2.3c-0.1-0.3-0.2-0.5-0.3-0.6c-0.1-0.1-0.2-0.2-0.4-0.2c-0.1,0-0.3,0.1-0.6,0.3
			c0,0-0.1,0.1-0.1,0.1c-0.1,0.1-0.1,0.2-0.1,0.3c-0.1,3.3-0.1,5,0,5.2c0,0.1,0.1,0.1,0.1,0.2C64.2,78.1,64.7,77.9,65,77.4z"/>
		<path fill="#333333" d="M68.4,74.8c-0.1-0.1-0.2-0.2-0.2-0.3c0,0,0.1-0.2,0.3-0.4c0.1-0.1,0.2-0.3,0.4-0.7
			c0.1-0.2,0.1-0.4,0.2-0.6c0-0.1,0-0.2,0-0.2c0-0.2-0.1-0.4-0.2-0.6c-0.1-0.1-0.2-0.2-0.3-0.2c-0.2,0-0.4,0-0.5,0.3
			c-0.2,0.3-0.3,0.5-0.4,0.5c-0.4,0.2-0.6,0.1-0.6-0.3c0-0.4,0.2-0.7,0.6-1c0.3-0.2,0.6-0.3,0.9-0.3c0.5,0,0.8,0.2,1.1,0.7
			c0.4,0.6,0.4,1.2,0.1,1.9c-0.1,0.2-0.2,0.4-0.4,0.7c-0.1,0.1-0.1,0.3-0.1,0.4c0,0,0.1,0.1,0.1,0.1c0.3,0.2,0.4,0.4,0.5,0.6
			c0.3,0.7,0.3,1.4,0.1,2.2c-0.1,0.4-0.4,0.7-0.7,0.9c-0.3,0.2-0.7,0.4-1,0.4c-0.4,0-0.8-0.1-1-0.4c-0.3-0.3-0.4-0.4-0.3-0.6
			c0.1-0.2,0.3-0.3,0.5-0.2c0.1,0,0.2,0.1,0.4,0.3c0.2,0.1,0.3,0.2,0.4,0.2c0.2,0,0.4-0.1,0.6-0.4c0.3-0.4,0.4-0.8,0.4-1.2
			c-0.1-0.6-0.3-1.1-0.6-1.4C68.7,75,68.6,74.9,68.4,74.8z"/>
		<path fill="#333333" d="M74.1,73.6c-0.2,0.5-0.4,1.1-0.6,1.7c0,0.1-0.2,0.5-0.4,1.2c-0.2,0.5-0.3,0.9-0.4,1.1
			c-0.3,0.8-0.6,1.2-0.9,1.2c-0.3,0-0.4-0.2-0.5-0.5c0-0.1,0-0.4-0.1-0.9c0-0.1,0-0.4,0-0.7c0-0.4,0-0.7,0-0.8c0-2.7,0-4,0-4.1
			c0-0.3,0-0.4,0-0.5c0.1-0.2,0.2-0.2,0.4-0.2c0.3,0,0.4,0.2,0.4,0.5c0,0.2,0,0.8,0,1.8l-0.1,2.5c-0.1,0.6-0.1,0.9-0.1,1
			c0,0,0-0.1,0.1-0.2c0.1-0.2,0.1-0.4,0.2-0.6c0-0.1,0.2-0.5,0.4-1.1c0.2-0.6,0.3-1,0.4-1.1c0.1-0.2,0.2-0.6,0.4-1
			c0.1-0.4,0.2-0.7,0.3-0.8c0,0,0.1-0.1,0.1-0.3c0.1-0.1,0.1-0.3,0.1-0.3c0.1-0.3,0.3-0.5,0.5-0.5c0.2,0,0.4,0.1,0.4,0.4
			c0,0.1,0,0.3,0,0.5c0,0.3,0,1.3,0.1,3.1l0,2.9c0,0.4,0,0.7-0.1,0.8c-0.1,0.1-0.2,0.2-0.4,0.2s-0.3-0.1-0.4-0.3c0,0,0-0.8,0-2.4
			c0-0.7,0-1.3,0-1.9C74.1,74,74.1,73.8,74.1,73.6z"/>
		<path fill="#333333" d="M79,70.8c0.3,0,0.4,0.3,0.4,0.8c0,0.1,0,0.4,0,0.8c0,0.5,0,0.8,0,0.9c0,0.6,0,1.4,0.1,2.3
			c0,0.6,0,1.4,0,2.5c0,0.2,0,0.3-0.1,0.3c-0.1,0.2-0.3,0.2-0.4,0.2c-0.3,0-0.5-0.2-0.5-0.5c0-2.1,0-3.3,0-3.5c0,0-0.2,0-0.5,0
			c-0.7,0-1.1,0-1.1,0c-0.1,0.1-0.1,0.6-0.1,1.4c0,0.3,0,0.6,0,1.2c0,0.6,0,0.9,0,1c0,0.3-0.1,0.4-0.4,0.4c-0.3,0-0.4-0.1-0.4-0.2
			C76.1,78.5,76,78,76,77.2c0-0.2,0-0.4,0-0.6c0-0.2,0-0.4,0-0.7c0-2.6,0-4.1,0-4.7c0-0.3,0.1-0.4,0.4-0.4c0.3,0,0.5,0.1,0.5,0.4
			c0,0.3,0,0.7,0,1.1c-0.1,1.1-0.1,1.7,0,1.8c0.1,0,0.4,0.1,0.9,0.1c0.5,0,0.8,0,0.9,0c0.1-0.1,0-1.1,0-2.9
			C78.6,70.9,78.7,70.8,79,70.8z"/>
		<path fill="#333333" d="M81.2,73.3c-0.1-0.2-0.2-0.5-0.3-0.7c-0.1-0.2-0.2-0.4-0.2-0.5c-0.3-0.6-0.4-1-0.4-1.1
			c0.1-0.3,0.3-0.5,0.7-0.3c0.2,0.1,0.4,0.4,0.7,1.2c0.5,1.4,0.7,2.1,0.8,2c0,0,0.1-0.1,0.1-0.3c0.1-0.5,0.3-0.9,0.4-1.2
			c0,0,0.1-0.4,0.4-1.2c0.1-0.3,0.3-0.5,0.6-0.5c0.4,0,0.6,0.2,0.5,0.7c0,0.1-0.1,0.3-0.2,0.7c-0.2,0.4-0.3,0.7-0.3,0.9
			c-0.1,0.3-0.2,0.7-0.5,1.3c-0.2,0.6-0.4,0.9-0.4,1c-0.1,0.2-0.2,0.7-0.3,1.4c-0.1,0.7-0.2,1.1-0.2,1.2c-0.2,0.6-0.4,0.9-0.6,0.9
			c-0.2,0-0.4-0.1-0.4-0.2c0-0.1,0-0.3,0.1-0.6c0.3-1,0.4-1.9,0.4-2.7C81.8,74.9,81.6,74.2,81.2,73.3z"/>
	</g>
</g>
<g id="Layer_6">
</g>
<g id="img_x5F_content">
</g>
</svg>
