<?xml version="1.0" encoding="utf-8"?>
<!-- Generator: Adobe Illustrator 19.2.1, SVG Export Plug-In . SVG Version: 6.00 Build 0)  -->
<svg version="1.1" xmlns="http://www.w3.org/2000/svg" xmlns:xlink="http://www.w3.org/1999/xlink" x="0px" y="0px"
	 viewBox="0 0 31.4 40.5" enable-background="new 0 0 31.4 40.5" xml:space="preserve">
<g id="img" display="none">
</g>
<g id="Layer_3">
</g>
<g id="main">
	<path fill="#CCCCCC" d="M4.4,24c0.9,1.6-1.3,2.4,0.6,3.9c2.4,1.9,2.3,1.6,7.6,1.7c0.8,0,1.9-0.1,1.6,1.6c-1.1,6.9,0.7,8.2,1.9,8.6
		c2.5,0.7-0.5-2.2,2.6-7.5c0.3-0.5,1.1-1,1.7-1.9c1.1-1.9,2.3-4.8,3.2-4.8c0.7,0,2.4,0,3.9,0V13.7c-2.2,0.2-5.4,0.4-6.2,0.5
		c-1.3,0.1-2.3-0.8-4.2-0.8c-1.7,0-2.7-1-8.4-0.2c-0.8,0.1-2.3,1.7-2,2.9c0.2,1-2.5,1.7-1.9,3.5C5.5,21.7,3,21.8,4.4,24z"/>
</g>
<g id="help" display="none">
</g>
<g id="img_x5F_content">
</g>
</svg>
