<?xml version="1.0" encoding="utf-8"?>
<!-- Generator: Adobe Illustrator 17.0.1, SVG Export Plug-In . SVG Version: 6.00 Build 0)  -->
<!DOCTYPE svg PUBLIC "-//W3C//DTD SVG 1.1//EN" "http://www.w3.org/Graphics/SVG/1.1/DTD/svg11.dtd">
<svg version="1.1" xmlns="http://www.w3.org/2000/svg" xmlns:xlink="http://www.w3.org/1999/xlink" x="0px" y="0px" width="84.3px"
	 height="107.7px" viewBox="0 0 84.3 107.7" enable-background="new 0 0 84.3 107.7" xml:space="preserve">
<g id="img" display="none">
</g>
<g id="Layer_3">
</g>
<g id="help" display="none">
</g>
<g id="main">
	<path fill="none" stroke="#FFFFFF" stroke-width="2" stroke-miterlimit="10" d="M60.2,89.5c0,0,1.5,0.4,1.8,0.9
		c1.6,2.4,5.5,10.1,6.5,18.6l-50.6,0c2.4-3.4,6.4-8.6,10-11.3c0,0,0.8-0.6,0.3-2.5c0,0-9.6-1-14.5-5.3c-3.2-2.8-2.2-6.2-2.6-7.7
		c-0.9-1.2-3.7-2.3-2.6-3.9c-0.8-0.1-2.9-0.5-3.2-2C5,74.9,5.5,72,5.5,71c0,0-5.2-1.3-4.4-4.4c0.8-3.1,4.9-5.1,4.8-10.1
		c-0.1-5-2-3.7-3-8.8C0.5,35.7,3.1,27.1,6.4,21.3c-0.1,0-0.2-0.1-0.3-0.1C5.5,21,5,20.7,4.5,20.3c-1.9-0.6-3.2-2.1-3.5-3.8
		c0-0.4,0-0.7,0-1.1c0.2,0.8,1.1,2.1,1.1,2.1s0.1-0.2,0.6,0.5c1,0.9,2.4,1.4,4,1.5c0.2,0,0.5,0,0.7,0c0.3-0.4,0.6-0.8,0.9-1.2
		c-0.6-0.1-1.2-0.3-1.7-0.7c-2.6-1.5-3.5-4.9-1.9-7.6c0.4,3,3.1,5.2,6.1,4.8c0.1,0,0.3,0,0.4-0.1c0.5-0.6,1-1,1.5-1.4
		c0,0,0,0,0.1-0.1c1-0.9,1.7-1.4,1.7-1.4c5.3-3.5,16.2-10,31.1-10.9c14.9-0.9,19,1.8,23.7,7.3c0,0,11.4,5.8,13.5,19.4
		c2.5,16.5-3.9,43.3-14.6,47.1C68.2,75,58.7,77.2,60.2,89.5z"/>
</g>
<g id="img_x5F_content">
</g>
</svg>
