<?xml version="1.0" encoding="utf-8"?>
<!-- Generator: Adobe Illustrator 17.0.1, SVG Export Plug-In . SVG Version: 6.00 Build 0)  -->
<!DOCTYPE svg PUBLIC "-//W3C//DTD SVG 1.1//EN" "http://www.w3.org/Graphics/SVG/1.1/DTD/svg11.dtd">
<svg version="1.1" xmlns="http://www.w3.org/2000/svg" xmlns:xlink="http://www.w3.org/1999/xlink" x="0px" y="0px" width="1100px"
	 height="89.3px" viewBox="0 0 1100 89.3" enable-background="new 0 0 1100 89.3" xml:space="preserve">
<g id="img" display="none">
</g>
<g id="Layer_3">
</g>
<g id="main">
	<g>
		<defs>
			<rect id="SVGID_7_" x="0" y="-132.3" width="1100" height="221.6"/>
		</defs>
		<clipPath id="SVGID_2_">
			<use xlink:href="#SVGID_7_"  overflow="visible"/>
		</clipPath>
		<g clip-path="url(#SVGID_2_)">
			<g>
				
					<line fill="none" stroke="#EBCBC8" stroke-width="3" stroke-linecap="round" stroke-miterlimit="10" x1="247.1" y1="5.4" x2="255.7" y2="3.6"/>
			</g>
			<g>
				
					<line fill="none" stroke="#EBCBC8" stroke-width="3" stroke-linecap="round" stroke-miterlimit="10" x1="182.1" y1="48.7" x2="190.7" y2="46.9"/>
			</g>
			<g>
				
					<line fill="none" stroke="#EBCBC8" stroke-width="3" stroke-linecap="round" stroke-miterlimit="10" x1="395.5" y1="27.9" x2="392.8" y2="19.6"/>
			</g>
			<g>
				
					<line fill="none" stroke="#EBCBC8" stroke-width="3" stroke-linecap="round" stroke-miterlimit="10" x1="309.5" y1="50.2" x2="301.3" y2="47.1"/>
			</g>
			<g>
				
					<line fill="none" stroke="#EBCBC8" stroke-width="3" stroke-linecap="round" stroke-miterlimit="10" x1="124.7" y1="23.7" x2="124.1" y2="32.4"/>
			</g>
			<g>
				
					<line fill="none" stroke="#EBCBC8" stroke-width="3" stroke-linecap="round" stroke-miterlimit="10" x1="734.7" y1="22.3" x2="734.1" y2="31"/>
			</g>
			<g>
				
					<line fill="none" stroke="#EBCBC8" stroke-width="3" stroke-linecap="round" stroke-miterlimit="10" x1="557.1" y1="7.2" x2="552.8" y2="14.9"/>
			</g>
			<g>
				
					<line fill="none" stroke="#EBCBC8" stroke-width="3" stroke-linecap="round" stroke-miterlimit="10" x1="550" y1="85.5" x2="543" y2="80.2"/>
			</g>
			<circle fill="none" stroke="#DBC0D5" stroke-width="3" stroke-miterlimit="10" cx="469.6" cy="12.7" r="3.7"/>
			<circle fill="none" stroke="#DBC0D5" stroke-width="3" stroke-miterlimit="10" cx="70" cy="23.3" r="3.7"/>
			<circle fill="none" stroke="#DBC0D5" stroke-width="3" stroke-miterlimit="10" cx="634.3" cy="34.8" r="3.7"/>
			<g>
				
					<line fill="none" stroke="#EBCBC8" stroke-width="3" stroke-linecap="round" stroke-miterlimit="10" x1="1015.1" y1="5.5" x2="1023.7" y2="3.6"/>
			</g>
			<g>
				
					<line fill="none" stroke="#EBCBC8" stroke-width="3" stroke-linecap="round" stroke-miterlimit="10" x1="950.1" y1="48.8" x2="958.7" y2="46.9"/>
			</g>
			<g>
				
					<line fill="none" stroke="#EBCBC8" stroke-width="3" stroke-linecap="round" stroke-miterlimit="10" x1="1077.5" y1="50.3" x2="1069.3" y2="47.2"/>
			</g>
			<g>
				
					<line fill="none" stroke="#EBCBC8" stroke-width="3" stroke-linecap="round" stroke-miterlimit="10" x1="892.7" y1="23.7" x2="892" y2="32.5"/>
			</g>
		</g>
	</g>
	<g>
		<g>
			<g>
				<path fill="none" stroke="#FFFFFF" stroke-width="2" stroke-miterlimit="10" d="M361.7-37.8c-1.6,2.5-3.3,4.9-5.2,7.3
					c-33.2,42.7-94.7,50.5-137.4,17.3c-37.3-29-47.9-79.5-28-120.3"/>
			</g>
		</g>
	</g>
</g>
<g id="help" display="none">
</g>
<g id="img_x5F_content">
</g>
</svg>
