<?xml version="1.0" encoding="utf-8"?>
<!-- Generator: Adobe Illustrator 20.1.0, SVG Export Plug-In . SVG Version: 6.00 Build 0)  -->
<svg version="1.1" xmlns="http://www.w3.org/2000/svg" xmlns:xlink="http://www.w3.org/1999/xlink" x="0px" y="0px"
	 viewBox="0 0 105.1 64.5" style="enable-background:new 0 0 105.1 64.5;" xml:space="preserve">
<style type="text/css">
	.st0{display:none;}
	.st1{display:inline;}
	.st2{fill:none;stroke:#BCA3A0;stroke-width:3;stroke-linecap:round;stroke-miterlimit:10;}
	.st3{fill:none;stroke:#968392;stroke-width:3;stroke-miterlimit:10;}
	.st4{fill:#666666;}
	.st5{fill:#4D4D4D;}
	.st6{fill:#333333;}
	.st7{fill:none;stroke:#D6BBBA;stroke-miterlimit:10;}
	.st8{fill:#999999;}
	.st9{fill:#8FA5C5;}
	.st10{fill:none;stroke:#FFFFFF;stroke-width:2;stroke-miterlimit:10;}
	.st11{fill:#EFE1D5;}
	.st12{fill:none;stroke:#EBCBC8;stroke-width:3;stroke-linecap:round;stroke-miterlimit:10;}
	.st13{fill:none;stroke:#DBC0D5;stroke-width:3;stroke-miterlimit:10;}
	.st14{fill:none;stroke:#D6CEBD;stroke-miterlimit:10;}
	.st15{fill:#E2D6CC;}
	.st16{fill:#E6E6E6;}
	.st17{fill:#7591AF;}
	.st18{fill:#D6BBBA;}
	.st19{fill:#FFFFFF;}
	.st20{fill:none;stroke:#8FA5C5;stroke-miterlimit:10;}
	.st21{fill:none;stroke:#000000;stroke-miterlimit:10;}
	.st22{fill:none;stroke:#000000;stroke-linecap:round;stroke-linejoin:round;stroke-miterlimit:10;}
	.st23{opacity:0.85;fill:#FFFFFF;}
	.st24{fill:none;stroke:#000000;stroke-width:2.323;stroke-miterlimit:10;}
	.st25{fill:none;stroke:#000000;stroke-width:2.323;stroke-linecap:round;stroke-linejoin:round;stroke-miterlimit:10;}
	.st26{fill:none;stroke:#000000;stroke-width:1.6305;stroke-linecap:round;stroke-linejoin:round;stroke-miterlimit:10;}
	.st27{opacity:0.8;fill:#FFFFFF;}
	.st28{fill:none;stroke:#000000;stroke-width:1.5;stroke-linecap:round;stroke-linejoin:round;stroke-miterlimit:10;}
	.st29{fill:none;stroke:#D6BBBA;stroke-width:1.5;stroke-linecap:round;stroke-linejoin:round;stroke-miterlimit:10;}
</style>
<g id="img" class="st0">
</g>
<g id="Layer_3">
</g>
<g id="help">
</g>
<g id="main">
	<g>
		<path class="st16" d="M33.7,50.3c0,0,0.8,0.2,1,0.5c1,1.5,3.3,6.2,3.8,11.3c0,0-14.3,4.5-30.1,1.2c0,0,3.8-6,7-8.3
			c0,0,0.4-0.4,0.2-1.4c0,0-5.4-0.6-8.2-3C5.5,49,6,47,5.8,46.2c-0.5-0.7-2.1-1.3-1.5-2.2c-0.5-0.1-1.6-0.3-1.8-1.1
			c-0.2-0.9,0.1-2.5,0.1-3.1c0,0-2.9-0.7-2.5-2.5c0.4-1.8,2.8-2.9,2.7-5.8c0-2.9-1.2-2.1-1.7-5c-1.3-6.8,0.1-11.7,2-15
			c0,0-0.1,0-0.1,0c-0.4-0.1-0.7-0.3-1-0.5c-1.1-0.4-1.8-1.2-2-2.2c0-0.2,0-0.4,0-0.6c0.1,0.4,0.6,1.2,0.6,1.2s0-0.1,0.3,0.3
			c0.6,0.5,1.4,0.8,2.3,0.9c0.1,0,0.3,0,0.4,0c0.2-0.2,0.3-0.5,0.5-0.7c-0.3-0.1-0.7-0.2-1-0.4c-1.5-0.9-2-2.8-1.1-4.3
			C2.3,6.9,3.8,8.2,5.6,8c0.1,0,0.2,0,0.3,0c0.3-0.3,0.6-0.6,0.8-0.8c0,0,0,0,0,0c0.6-0.5,1-0.8,1-0.8c3-2,9.2-5.7,17.7-6.2
			c8.5-0.5,10.8,1,13.5,4.2c0,0,6.5,3.3,7.7,11c1.4,9.4-2.2,24.6-8.3,26.8C38.2,42.1,32.8,43.3,33.7,50.3z"/>
		<g>
			<path class="st16" d="M65.9,29.2c-0.7-1.3-1.2-2.5-1.5-3.5c-1.2-3.2-1.5-4.3-1.6-4.6c0.3-0.5,0.9-1.8,2.2-4.6
				c0.1-0.1,0.2-0.4,0.5-0.8c0.3-0.5,0.5-0.8,0.5-1c0-0.1,0.2-0.4,0.5-0.8c0.4-0.6,0.4-0.8,0.4-1c0-0.5-0.4-0.9-0.9-0.9
				c-0.4,0-0.8,0.4-1.8,2.4c-0.1,0.2-0.3,0.7-0.7,1.4l-0.9,1.7c-0.4,0.7-0.6,1.2-0.8,1.6c0-0.7,0.1-1.8,0.3-3.6c0-3,0-3-0.1-3.2
				c-0.2-0.3-0.6-0.5-1.1-0.3c-0.5,0.2-0.7,0.5-0.7,1c0,0.1,0,1.7,0.1,4.8c0.1,3.1,0.1,4.8,0.1,5c0,0.2,0,0.7-0.1,1.7
				c0,1.1,0,1.9-0.1,2.5c0,0.7,0,1.5-0.1,2.3c0,0.8,0,1.2,0,1.4c0,0.5,0,1.8,0.9,1.8c0.8,0,0.8-1.1,0.8-1.5V30c0-0.4,0-0.6,0-0.8
				c0.1-0.7,0.1-2.3,0.1-5c0-0.1,0-0.2,0-0.3c0.3,0.7,0.6,1.7,1.1,2.9c0.7,1.8,1.4,3.5,2,4.8c0.2,0.4,0.5,0.8,0.9,0.8l0.1,0
				c0.4-0.1,0.8-0.4,0.7-1.2C66.8,31.2,66.8,31,65.9,29.2z"/>
			<path class="st16" d="M70.7,15.3c0,0.1,0,0.4,0,0.9c0,0.5,0,1,0,1.5c0,0.8,0,2,0,3.4l0,5.4l-0.1,4.6c0,0.3,0,1.2,0.7,1.4
				c0.1,0,0.2,0,0.3,0c0.3,0,0.6-0.2,0.8-0.5c0.1-0.2,0.1-0.2,0.1-2.6l0-1c0-3.7,0-5.9,0-6.6c0.1-0.1,0.4-0.2,1-0.5
				c0.3-0.2,0.7-0.5,1.1-1c0.5-0.5,0.8-1.1,0.9-1.6c0.3-0.9,0.4-1.8,0.3-2.6c0-0.8-0.3-1.6-0.8-2.6c-0.4-0.5-0.8-1-1.3-1.2
				c-0.6-0.3-1.2-0.5-1.8-0.5c-1,0-1.2,0.6-1.2,0.9c-0.1,0.6-0.1,1.1,0,1.7C70.7,14.5,70.7,14.9,70.7,15.3z M72.4,17
				c0-2.1,0-2.9,0.1-3.2c0.1,0,0.1,0,0.3,0.1c0.5,0.2,0.9,0.5,1.1,1c0.3,0.7,0.4,1.5,0.4,2.3c-0.1,0.9-0.4,1.6-1,2.1
				c-0.2,0.2-0.4,0.3-0.7,0.4C72.4,19.3,72.4,18.5,72.4,17z"/>
			<path class="st16" d="M83.1,32.5L83.1,32.5c0.7,0,1.3-0.3,1.8-0.8c0.3-0.3,0.6-0.8,0.9-1.5c0.3-0.8,0.6-1.8,0.7-3
				c0.1-0.4,0.2-1.5,0.3-3.4c0.1-2.2,0-4.4-0.3-6.4c-0.1-0.5-0.3-1.5-0.7-3c-0.3-0.9-0.6-1.6-1.1-2c-0.4-0.4-1-0.6-1.7-0.6
				c-0.7,0-1.3,0.2-1.7,0.7c-0.4,0.4-0.7,1-1,1.8c-0.2,0.7-0.4,1.7-0.5,3c0,0.4-0.1,1.8-0.1,4.1c0,0.7,0,1.8,0.1,3.4
				c0.1,2.1,0.3,3.4,0.4,4c0.3,1.2,0.6,2,0.8,2.4C81.6,32,82.3,32.4,83.1,32.5z M83.1,13.4V13l0,0L83.1,13.4c0.4,0,0.7,0.3,1.1,0.9
				c0,0.1,0.2,0.4,0.6,1.9c0.2,0.6,0.3,1.4,0.3,2.4c0.1,1.2,0.1,2.1,0.1,2.8c0,0.5,0,0.9,0,1.1c0,0.7-0.1,2-0.2,3.9
				c-0.1,1.1-0.3,2.1-0.7,3.1c-0.2,0.6-0.6,1.3-1.1,1.3c-0.1,0-0.5,0-0.8-0.7c0-0.1-0.1-0.4-0.5-2.1c-0.1-0.7-0.3-1.9-0.4-3.3
				c-0.1-0.9-0.1-2.4,0-4.6C81.7,13.9,82.8,13.4,83.1,13.4z"/>
			<path class="st16" d="M95.6,31.5c0-0.3,0-0.7-0.1-1.2c-1.1-5.3-1.7-8.5-1.7-9.3c0-0.1,0.1-0.8,0.8-4.2c0.4-1.9,0.7-3.1,0.8-3.5
				c0.1-0.3,0.1-0.6,0-0.9c-0.2-0.6-0.6-0.7-0.8-0.7c-0.3,0-0.6,0.1-0.9,0.6l-0.1,0.2c0,0.1,0,0.1-0.1,0.2l0.5,0.1l0,0l-0.5-0.1
				c0,0.2-0.5,3.1-0.7,4c-0.1,0.5-0.2,0.9-0.2,1.3c-0.1-0.4-0.2-0.9-0.3-1.6c-0.7-4.5-1-4.6-1.3-4.7c-0.6-0.2-1.1,0.1-1.2,0.7
				c0,0.1-0.1,0.2,0.3,1.6c0.4,1.7,0.7,2.8,0.8,3.4c0.4,2.2,0.7,3.4,0.7,3.4c0,0.1,0,0.5-0.4,2.5c0,0.1-0.1,0.5-0.2,1.3
				c-0.1,0.7-0.2,1.3-0.3,1.9c-0.1,0.5-0.2,1.2-0.4,2c-0.1,0.8-0.2,1.1-0.2,1.2c-0.2,0.7-0.3,1.2-0.4,1.6c0,0.3,0.1,0.5,0.2,0.6
				c0.1,0.1,0.3,0.3,0.6,0.3l0.1,0c0.3,0,0.6-0.1,0.7-0.4c0.1-0.1,0.2-0.3,0.4-1.4l0,0c0,0,0-0.1,0-0.1h0l0,0c0-0.2,0.1-0.6,0.1-1.2
				c0.1-0.9,0.2-1.7,0.4-2.5c0.2-1.1,0.3-1.9,0.5-2.6c0.1,0.8,0.3,1.8,0.5,3.1c0.3,2.5,0.5,3.6,0.7,4.2h0c0,0.4,0.3,0.8,1,0.8
				C95.2,32.4,95.6,32.2,95.6,31.5z M94.4,31.6L94.4,31.6L94.4,31.6L94.4,31.6z"/>
			<path class="st16" d="M102.8,30.8c-0.8,0-1.3,0-1.4,0c0-0.1-0.1-0.5-0.1-1.3c0-0.4,0.1-3,0.2-7.7c0.1,0,0.2,0,0.3,0
				c0.2,0,0.6,0,1.3,0c0.2,0,0.4-0.1,0.6-0.3c0.2-0.3,0-0.7,0-0.8c-0.2-0.4-0.5-0.7-0.9-0.7l-0.8,0c-0.2,0-0.4,0-0.5,0
				c0-0.4-0.1-1.2-0.1-2.9l-0.1-3.8c0.2,0,0.5-0.1,1.1-0.1c1.5,0,2.1,0,2.3-0.5c0.1-0.2,0.1-0.4,0-0.6c-0.2-0.3-0.6-0.4-0.9-0.4
				c-0.1,0-0.4,0-0.6,0l-0.4,0c-0.4,0-1-0.1-2.1,0c-0.3,0-0.5,0.1-0.7,0.3c-0.3,0.4-0.4,1-0.4,1.9c0.1,1.6,0.2,5.5,0.2,11.7
				c0,0.4,0,1.3,0,2.6c0,1.2,0,1.8,0,2c0,1.7,0,1.7,0.1,1.8l0.1,0.1c0.2,0.2,0.6,0.2,1.6,0.1c0.6,0,1.1,0,1.6,0
				c1.3,0,1.7-0.1,1.9-0.3l0.1-0.2v-0.2C105.1,31,104.3,30.7,102.8,30.8z"/>
			<path class="st16" d="M65.8,41.8c0-0.7,0-1.3,0-1.9c0-0.2,0-0.4,0-0.6l0-0.3c0-0.4,0-1.5-0.8-1.5c-0.4,0-0.8,0.3-0.8,0.9
				c0.1,5.3,0.1,7,0,7.5c-0.1,0-0.4,0.1-0.9,0.1l-0.3,0c-0.7,0-1.1-0.1-1.3-0.1c-0.1-0.4-0.1-1.7,0.1-5.8c0-0.7,0-1.3,0-1.8
				c0-0.6-0.5-0.8-0.9-0.8c-0.3,0-0.7,0.3-0.8,0.9c-0.1,1.6-0.1,6.2,0,13.6c0,0.3,0,0.9,0,1.9c0,0.8,0,1.4,0,1.8
				c0,0.8,0,1.3,0.1,1.5l-0.1,0.1l0.1,0.3c0.1,0.4,0.5,0.6,0.9,0.6c0.3,0,0.8-0.2,0.8-0.9c0-2.8,0-4.4,0-4.8c0-0.7,0-1.8,0-3.3
				c0-0.9-0.1-1.4-0.1-1.6c0.2,0,0.7-0.1,1.7-0.1c0.3,0,0.6,0,0.7,0c0,0.6,0.1,2.8,0,9.7c0,1,0.7,1.1,0.9,1.1c0.3,0,0.6-0.2,0.8-0.4
				c0.1-0.2,0.2-0.4,0.2-0.7c0-2.8,0-5.1-0.1-6.9C65.9,46.4,65.8,43.6,65.8,41.8z"/>
			<path class="st16" d="M77.2,49.1c-0.1-0.7-0.2-1.5-0.3-2.5c-0.1-0.8-0.1-1.3-0.2-1.5c0-0.2-0.1-0.5-0.3-1.7
				c-0.2-1.2-0.3-1.9-0.4-2c-0.1-0.7-0.4-1.6-0.7-2.7c-0.3-0.8-0.6-1.2-1.1-1.2c-0.6,0-0.9,0.7-1.2,1.8c-0.1,0.4-0.2,0.8-0.3,1.1
				c-0.1,0.3-0.2,0.8-0.3,1.5c-0.4,2.8-0.7,4.3-0.7,4.7c-0.2,0.8-0.3,2.1-0.5,3.8c-0.2,1.8-0.4,2.8-0.4,3.2
				c-0.6,3.5-0.5,3.7-0.4,3.9c0.2,0.4,0.6,0.6,1.1,0.6c0.2,0,0.6-0.1,0.7-0.9c0,0,0-0.2,0-0.5c0-0.2,0-0.4,0-0.5
				c0-0.6,0.2-1.5,0.4-2.7c0.1-0.5,0.2-0.6,0.2-0.6c0,0,0,0,0,0c0.5-0.3,1.2-0.3,2-0.2c0.6,0.1,0.9,0.2,1,0.2
				c0.3,1.4,0.4,2.9,0.2,4.3c0,0.2,0,0.4,0.2,0.6c0.2,0.2,0.4,0.3,0.7,0.3c0.1,0,0.1,0,0.2,0c0.3,0,0.6-0.2,0.8-0.5
				c0.1-0.2,0.2-0.4,0.2-0.6l0-0.3C77.7,54.3,77.5,51.7,77.2,49.1z M75.6,51.1c-0.2,0-0.8,0.1-1.9,0.1c-0.3,0-0.6,0-0.9,0
				c0-0.1,0-0.3,0.1-0.5c0-0.2,0.1-0.9,0.3-2c0.2-1.1,0.3-2,0.4-2.7c0.1-0.6,0.3-1.4,0.5-2.4c0.2-0.9,0.3-1.5,0.3-1.6
				c0.1-0.4,0.1-0.7,0.2-1c0.1,0.6,0.3,1.7,0.6,3.3C75.4,47.1,75.6,49.4,75.6,51.1z"/>
			<path class="st16" d="M91.2,55.8c-0.3-0.8-0.5-1.3-0.9-1.6c-0.2-0.1-0.4-0.2-0.6-0.2c0-0.6,0-1.7,0-3.2c0-3.2,0-4.9,0-5.1l0-3.4
				c0.1-3.2-0.2-4-0.6-4.3c-0.2-0.3-0.7-0.4-2.5-0.4c-2.4,0-2.8,0.3-3,0.5c-0.2,0.2-0.4,0.4-0.3,4.3l0,3.4c0,0.2,0,1.9,0,5.1
				c-0.1,1.5-0.1,2.5,0,3.2c-0.2,0-0.4,0.1-0.5,0.2c-0.4,0.3-0.7,0.8-0.9,1.6c-0.1,0.3-0.2,0.6-0.2,0.8l-0.1,0L81.4,57
				c0,0.2-0.1,0.6,0.1,0.9c0.3,0.4,0.9,0.3,1.1,0.2c0.4-0.2,0.5-0.7,0.5-0.8c0-0.2,0.1-0.5,0.2-0.8c0.1-0.4,0.2-0.6,0.2-0.7
				c0,0,0.2-0.1,0.8-0.1h0.4c0.1,0,0.4,0,1,0c1.1,0,1.5,0,1.7,0c0.1,0,0.2,0,0.3,0c0.2,0,0.3,0,0.4,0h0.4c0.7,0,0.9,0.1,0.9,0.1
				c0.1,0.1,0.2,0.3,0.3,0.7c0.1,0.3,0.1,0.6,0.2,0.8c0,0.2,0.1,0.6,0.4,0.8c0.2,0.1,0.4,0.1,0.6,0.1c0.2,0,0.4-0.1,0.5-0.2
				c0.2-0.3,0.2-0.6,0.1-0.9C91.5,56.6,91.4,56.2,91.2,55.8z M87.9,50.1c0,0.3,0,0.9,0,1.9l0,1.9h-0.8c-0.1,0-0.5,0-1.3,0
				c-0.4,0-0.7,0-0.9,0c0-0.6,0-1.9,0.1-3.8c0-0.8,0-2,0-3.7l0-1.6c0-1.5,0-2.4,0-2.9c0-1.7,0.1-2.3,0.1-2.6c0.1,0,0.5-0.1,1.3-0.1
				c0.1,0,0.3,0,0.4,0c0.1,0,0.1,0,0.3,0h0.3c0.1,0,0.2,0,0.3,0c0,0,0,0,0.1,0c0,0.2,0.1,0.8,0.2,2.6c0,0.5,0,1.5,0,2.9l0,1.6
				C87.9,48.1,87.9,49.3,87.9,50.1z"/>
			<path class="st16" d="M101.3,40.1c-0.3-0.9-0.6-1.6-1.1-2c-0.4-0.4-1-0.6-1.7-0.6c-0.7,0-1.3,0.2-1.7,0.7c-0.4,0.4-0.7,1-1,1.8
				c-0.2,0.7-0.4,1.7-0.5,3c0,0.4-0.1,1.8-0.1,4.1c0,0.7,0,1.8,0.1,3.4c0.1,2.1,0.3,3.4,0.4,4c0.3,1.2,0.6,2,0.8,2.4
				c0.5,0.8,1.2,1.2,2,1.3l0.1,0c0.6,0,1.2-0.3,1.8-0.8c0.3-0.3,0.6-0.8,0.9-1.5c0.3-0.8,0.6-1.8,0.7-3c0.1-0.4,0.2-1.5,0.3-3.4
				c0.1-2.2,0-4.4-0.3-6.4C102,42.6,101.8,41.6,101.3,40.1z M98.6,56.4c-0.1,0-0.5,0-0.8-0.7c0-0.1-0.1-0.4-0.5-2.1
				c-0.1-0.7-0.3-1.9-0.4-3.3c-0.1-0.9-0.1-2.4,0-4.6c0.2-6.1,1.3-6.5,1.6-6.5v-0.5l0,0l0,0.5c0.4,0,0.7,0.3,1,0.9
				c0,0.1,0.2,0.4,0.6,1.9c0.2,0.6,0.3,1.4,0.3,2.4c0.1,1.2,0.1,2.1,0.1,2.8c0,0.5,0,0.9,0,1.1c0,0.7-0.1,2-0.2,3.9
				c-0.1,1.1-0.3,2.1-0.7,3.1C99.5,55.7,99.1,56.4,98.6,56.4z"/>
		</g>
	</g>
</g>
<g id="Layer_6">
</g>
<g id="img_x5F_content">
</g>
</svg>
