<?xml version="1.0" encoding="utf-8"?>
<!-- Generator: Adobe Illustrator 17.0.1, SVG Export Plug-In . SVG Version: 6.00 Build 0)  -->
<!DOCTYPE svg PUBLIC "-//W3C//DTD SVG 1.1//EN" "http://www.w3.org/Graphics/SVG/1.1/DTD/svg11.dtd">
<svg version="1.1" xmlns="http://www.w3.org/2000/svg" xmlns:xlink="http://www.w3.org/1999/xlink" x="0px" y="0px" width="88px"
	 height="88px" viewBox="0 0 88 88" enable-background="new 0 0 88 88" xml:space="preserve">
<g id="img" display="none">
</g>
<g id="Layer_3">
</g>
<g id="help">
</g>
<g id="main">
	
		<polyline fill="none" stroke="#000000" stroke-width="2.323" stroke-linecap="round" stroke-linejoin="round" stroke-miterlimit="10" points="
		42.2,35.8 51.1,27.4 42.2,19 	"/>
	<g>
		<path fill="#333333" d="M9.4,59c0-1.3,0.1-2.1,0.3-2.5c0.2-0.3,0.8-0.5,1.7-0.5c0.9,0,1.6,0.2,1.9,0.5c0.1,0.1,0.2,0.4,0.3,0.7
			c0,0.1,0,0.2,0,0.4c0,0.2,0,0.3,0,0.4c0,0,0,0.9,0.1,2.5c0,1.3,0.1,2.5,0.1,3.7c0,0.7,0,1.5,0,2.4c0,0.2,0,0.5,0,0.8
			c0,0.2,0,0.4,0,0.4c0,0.1,0,0.2,0,0.4c0,0.2,0,0.3,0,0.4c0,0.1,0,0.2-0.1,0.3c-0.1,0.1-0.2,0.2-0.4,0.1c-0.3,0-0.5-0.2-0.4-0.5
			c0-0.3,0-0.6,0-0.9c0.1-3.2,0.1-5.1,0.1-5.7c0-0.2,0-0.7,0-1.4c0-0.6,0-1,0-1.2c0-0.4,0-0.9-0.1-1.7c0-0.5-0.1-0.8-0.1-0.9
			c-0.1-0.1-0.5-0.2-1.2-0.1c-0.5,0-0.8,0.1-0.9,0.1c-0.1,0.2-0.2,0.4-0.2,0.8c0,0.1,0,0.3,0,0.5c0,0.2,0,0.3,0,0.4c0,0.3,0,1,0,1.9
			l0,1c0,1.1,0,1.9,0,2.4c0,0.3,0,1,0,2c0.1,1.6,0.1,2.4,0.1,2.6c0,0.1,0,0.2-0.1,0.3c-0.1,0.1-0.2,0.2-0.4,0.2
			c-0.3,0-0.5-0.1-0.5-0.4c0-0.2,0-0.7,0-1.5c0-0.4,0-1.3,0-2.7c0-2.1,0-3.2,0-3.3L9.4,59z"/>
		<path fill="#333333" d="M15.3,68.4c-0.3-0.4-0.4-1.2-0.5-2.3c0-1.1,0-2,0.1-2.7c0.1-0.5,0.2-0.9,0.5-1.2s0.6-0.6,1-0.7
			c0.4-0.1,0.8-0.1,1.1,0c0.2,0.1,0.4,0.3,0.6,0.5c0.4,0.4,0.5,1.3,0.5,2.7c0,1.4,0,2.2,0,2.4c0,0.6-0.2,1-0.5,1.4
			c-0.3,0.4-0.7,0.5-1.1,0.5c-0.4,0-0.7,0-0.8-0.1C15.8,69,15.6,68.8,15.3,68.4z M16,63.6c-0.1,0.7-0.1,1.4-0.1,2.4
			c0,1.2,0.1,1.9,0.3,2.1c0.2,0.2,0.4,0.3,0.6,0.4c0.2,0,0.4,0,0.5-0.1c0.3-0.3,0.5-1.3,0.4-3.1c0-1.4-0.1-2.3-0.3-2.5
			c-0.2-0.3-0.4-0.4-0.6-0.4c-0.1,0-0.3,0.1-0.5,0.3C16.2,62.8,16,63.2,16,63.6z"/>
		<path fill="#333333" d="M22.2,68.1c0.3-0.1,0.5-0.1,0.7,0.2c0.1,0.2,0.1,0.4-0.1,0.5c-0.4,0.3-0.9,0.4-1.4,0.4
			c-0.5,0-0.9-0.2-1.2-0.4c-0.5-0.4-0.7-1.2-0.7-2.4c0-1.3,0-2.2,0.1-2.9c0-1.1,0.4-1.8,1.2-2c0.7-0.2,1.3-0.2,1.8,0.1
			c0.2,0.2,0.3,0.3,0.2,0.5c-0.1,0.3-0.4,0.4-0.7,0.1c-0.1-0.1-0.4-0.2-0.7-0.2c-0.1,0-0.3,0.1-0.4,0.2c-0.2,0.1-0.3,0.3-0.4,0.5
			c-0.1,0.3-0.2,1.2-0.1,2.7c0,1.6,0.2,2.5,0.5,2.7c0.3,0.2,0.5,0.2,0.8,0.1C21.7,68.3,21.9,68.2,22.2,68.1z"/>
		<path fill="#333333" d="M28.3,62.4c0,0.7-0.1,1.1-0.1,1.3c0,0.2,0,0.9,0,2.1c0,1.2,0,1.9,0,2c0,0.7,0,1-0.1,1.1
			c-0.3,0.4-0.5,0.4-0.7-0.1c0-0.1,0-0.7-0.1-2c0-0.9,0-1.5,0-1.7c0-0.3,0-0.6,0.1-1c0-0.1-0.2,0.4-0.3,1.5c0,0.2-0.1,0.6-0.3,1.3
			c-0.1,0.6-0.2,0.9-0.3,1.1c0,0.1-0.1,0.2-0.1,0.3c0,0.1-0.1,0.2-0.1,0.3c-0.1,0.3-0.3,0.4-0.5,0.4c-0.3,0-0.7-1.2-1.2-3.6
			c-0.2-1-0.3-1.4-0.3-1.3c0,0.1,0,0.9,0.1,2.6l0.1,1.4c0,0.1,0,0.4,0,0.6c0,0.2-0.1,0.3-0.4,0.3c-0.3,0-0.5-0.4-0.5-1.1l0-0.9
			l0-4.1c0,0,0-0.5,0-1.4c0-0.2,0.2-0.3,0.4-0.3c0.2,0,0.4,0.1,0.4,0.2c0,0.1,0.2,0.8,0.5,2c0.1,0.2,0.2,0.7,0.3,1.3
			c0.1,0.6,0.2,0.9,0.3,1.1c0,0.1,0.1,0.5,0.3,1.4c0,0.2,0,0.3,0,0.4c0.1-0.2,0.3-0.9,0.6-2.3c0-0.2,0.1-0.6,0.2-1.1
			c0.1-0.5,0.2-0.8,0.2-1c0-0.2,0.1-0.5,0.2-1c0.1-0.4,0.2-0.7,0.2-0.8c0.1-0.2,0.2-0.3,0.5-0.3c0.2,0,0.4,0.1,0.4,0.3
			C28.4,61.6,28.4,61.9,28.3,62.4z"/>
		<path fill="#333333" d="M29.7,68.4c-0.3-0.4-0.4-1.2-0.5-2.3c0-1.1,0-2,0.1-2.7c0.1-0.5,0.2-0.9,0.5-1.2s0.6-0.6,1-0.7
			c0.4-0.1,0.8-0.1,1.1,0c0.2,0.1,0.4,0.3,0.6,0.5c0.4,0.4,0.5,1.3,0.5,2.7c0,1.4,0,2.2,0,2.4c0,0.6-0.2,1-0.5,1.4
			c-0.3,0.4-0.7,0.5-1.1,0.5c-0.4,0-0.7,0-0.8-0.1C30.2,69,30,68.8,29.7,68.4z M30.4,63.6c-0.1,0.7-0.1,1.4-0.1,2.4
			c0,1.2,0.1,1.9,0.3,2.1c0.2,0.2,0.4,0.3,0.6,0.4c0.2,0,0.4,0,0.5-0.1c0.3-0.3,0.5-1.3,0.4-3.1c0-1.4-0.1-2.3-0.3-2.5
			c-0.2-0.3-0.4-0.4-0.6-0.4c-0.1,0-0.3,0.1-0.5,0.3C30.6,62.8,30.4,63.2,30.4,63.6z"/>
		<path fill="#333333" d="M35.7,69.2c0,0-0.1,0-0.4-0.1c-0.1-0.1-0.2-1.5-0.2-4.4l0-1.7c0-0.7,0-1-0.1-1s-0.4,0-1.2,0
			c-0.2,0-0.3-0.1-0.4-0.2c0-0.1,0-0.2,0-0.3c0.1-0.1,0.7-0.2,2.1-0.2c1.1,0,1.6,0,1.7,0c0.4,0,0.5,0.1,0.5,0.3
			c0,0.2-0.1,0.4-0.4,0.4c-0.1,0-0.5,0-1,0H36c-0.1,0.1-0.1,0.6-0.1,1.5C36,67.3,36,69.2,35.7,69.2C35.8,69.2,35.7,69.2,35.7,69.2z"
			/>
		<path fill="#333333" d="M41.8,62.9c0.2,0.6,0.3,1.5,0.2,2.7c0,1.2-0.2,2.1-0.5,2.6c-0.4,0.7-1,1.1-1.7,1.1c-0.2,0-0.4,0-0.6-0.1
			c-0.2,0-0.2,0.5,0,1.6c0,1,0,1.6,0,1.9c0,0.4-0.2,0.6-0.6,0.6c-0.2,0-0.3-0.2-0.4-0.6c0-0.1,0-0.2,0-0.4c0-0.2,0-0.3,0-0.4
			c0-0.3,0-1.3,0-3.1c0-1.8,0-3.5,0-5.2c0,0,0-0.3,0-0.7c0-0.4,0-0.8,0-1.1c0-0.2,0.1-0.3,0.4-0.3c0.1,0,0.2,0,0.3,0.1
			c0.1,0,0.1,0.1,0.1,0.2s0.1,0.1,0.4-0.1c0.2-0.1,0.4-0.2,0.7-0.2c0.3,0,0.6,0.1,0.8,0.3C41.3,62,41.6,62.4,41.8,62.9z M40.8,67.8
			c0.2-0.5,0.4-1.3,0.3-2.6c0-1.1-0.1-1.9-0.3-2.3c-0.1-0.3-0.2-0.5-0.3-0.6c-0.1-0.1-0.2-0.2-0.4-0.2c-0.1,0-0.3,0.1-0.6,0.3
			c0,0-0.1,0.1-0.1,0.1c-0.1,0.1-0.1,0.2-0.1,0.3c-0.1,3.3-0.1,5,0,5.2c0,0.1,0.1,0.1,0.1,0.2C40,68.6,40.5,68.4,40.8,67.8z"/>
		<path fill="#333333" d="M45.5,68.1c0.3-0.1,0.5-0.1,0.7,0.2c0.1,0.2,0.1,0.4-0.1,0.5c-0.4,0.3-0.9,0.4-1.4,0.4
			c-0.5,0-0.9-0.2-1.2-0.4c-0.5-0.4-0.7-1.2-0.7-2.4c0-1.3,0-2.2,0.1-2.9c0-1.1,0.4-1.8,1.1-2c0.7-0.2,1.2-0.2,1.6,0.1
			c0.2,0.1,0.4,0.4,0.6,0.8c0.1,0.3,0.2,0.7,0.1,1.3c-0.1,0.6-0.2,1-0.4,1.2c-0.2,0.2-0.6,0.4-1.1,0.5c-0.4,0.1-0.8,0.1-1,0.1
			c-0.1,0-0.1,0-0.1,0.1c0,1.6,0.2,2.5,0.5,2.7c0.3,0.2,0.5,0.2,0.8,0.1C45,68.3,45.1,68.2,45.5,68.1z M44.6,62.1
			c-0.1,0-0.3,0.1-0.4,0.2c-0.2,0.1-0.3,0.3-0.4,0.5c-0.1,0.2-0.1,0.8-0.1,1.9c0,0,0,0-0.1,0c0.8,0,1.3-0.1,1.5-0.3
			c0.2-0.2,0.3-0.6,0.3-1.1c0-0.4-0.1-0.7-0.2-0.9C45.1,62.2,44.9,62.1,44.6,62.1z"/>
		<path fill="#333333" d="M49.1,69.2c0,0-0.1,0-0.4-0.1c-0.1-0.1-0.2-1.5-0.2-4.4l0-1.7c0-0.7,0-1-0.1-1s-0.4,0-1.2,0
			c-0.2,0-0.3-0.1-0.4-0.2c0-0.1,0-0.2,0-0.3c0.1-0.1,0.7-0.2,2.1-0.2c1.1,0,1.6,0,1.7,0c0.4,0,0.5,0.1,0.5,0.3
			c0,0.2-0.1,0.4-0.4,0.4c-0.1,0-0.5,0-1,0h-0.3c-0.1,0.1-0.1,0.6-0.1,1.5C49.3,67.3,49.3,69.2,49.1,69.2
			C49.1,69.2,49.1,69.2,49.1,69.2z"/>
		<path fill="#333333" d="M54.4,64.7c0.4,0.4,0.6,1,0.7,1.8c0,0.9-0.1,1.5-0.4,1.9c-0.3,0.4-0.7,0.6-1,0.7c-0.2,0.1-0.6,0.1-1.3,0.1
			c-0.1,0-0.1,0-0.2,0c-0.2,0-0.3-0.1-0.3-0.2c0,0-0.1-0.4-0.1-1c0-0.2,0-2,0-5.3v-0.8c0-0.2,0-0.3,0-0.4c0-0.2,0.2-0.2,0.4-0.2
			s0.4,0.1,0.4,0.4c0,0,0,0.1,0,0.2c0,0.1,0,0.2,0,0.3c0,0.1,0,0.5,0,1.3c0,0.7,0,1,0,1c0,0,0,0,0,0c0.2-0.1,0.3-0.1,0.4-0.1
			C53.5,64.2,54,64.3,54.4,64.7z M54.1,66.2c-0.1-0.7-0.3-1.1-0.8-1.2c-0.3-0.1-0.6,0-0.8,0.1c0,0,0,0.8,0,2.3c0,0.6,0,1,0.1,1.1
			c0,0,0.1,0,0.4,0c0.3-0.1,0.6-0.2,0.8-0.5C54,67.6,54.2,67,54.1,66.2z"/>
		<path fill="#333333" d="M60.4,69.2c0,0-0.1,0-0.4-0.1c-0.1-0.1-0.2-1.5-0.2-4.4l0-1.7c0-0.7,0-1-0.1-1s-0.4,0-1.2,0
			c-0.2,0-0.3-0.1-0.4-0.2c0-0.1,0-0.2,0-0.3c0.1-0.1,0.7-0.2,2.1-0.2c1.1,0,1.6,0,1.7,0c0.4,0,0.5,0.1,0.5,0.3
			c0,0.2-0.1,0.4-0.4,0.4c-0.1,0-0.5,0-1,0h-0.3c-0.1,0.1-0.1,0.6-0.1,1.5C60.6,67.3,60.6,69.2,60.4,69.2
			C60.4,69.2,60.4,69.2,60.4,69.2z"/>
		<path fill="#333333" d="M63.1,68.4c-0.3-0.4-0.4-1.2-0.5-2.3c0-1.1,0-2,0.1-2.7c0.1-0.5,0.2-0.9,0.5-1.2s0.6-0.6,1-0.7
			c0.4-0.1,0.8-0.1,1.1,0c0.2,0.1,0.4,0.3,0.6,0.5c0.4,0.4,0.5,1.3,0.5,2.7c0,1.4,0,2.2,0,2.4c0,0.6-0.2,1-0.5,1.4
			c-0.3,0.4-0.7,0.5-1.1,0.5c-0.4,0-0.7,0-0.8-0.1C63.7,69,63.4,68.8,63.1,68.4z M63.8,63.6c-0.1,0.7-0.1,1.4-0.1,2.4
			c0,1.2,0.1,1.9,0.3,2.1c0.2,0.2,0.4,0.3,0.6,0.4c0.2,0,0.4,0,0.5-0.1c0.3-0.3,0.5-1.3,0.4-3.1c0-1.4-0.1-2.3-0.3-2.5
			c-0.2-0.3-0.4-0.4-0.6-0.4c-0.1,0-0.3,0.1-0.5,0.3C64,62.8,63.8,63.2,63.8,63.6z"/>
		<path fill="#333333" d="M70.2,68.8c-0.2,0.1-0.5,0.2-1,0.3c-0.2,0-0.5,0-0.9,0c-0.6,0-0.9-0.1-1-0.2c0-0.1,0-1,0.1-2.6l-0.1-4.2
			c0-0.3,0-0.5,0-0.6c0.1-0.2,0.3-0.3,0.6-0.3c0.8,0,1.4,0.2,1.8,0.5c0.5,0.3,0.7,0.8,0.6,1.3c0,0.4-0.2,0.8-0.6,1.3
			c-0.2,0.1-0.3,0.2-0.4,0.3c0,0,0,0.1,0.1,0.1c0.3,0.1,0.6,0.3,0.7,0.4c0.2,0.2,0.4,0.5,0.6,0.9c0.2,0.5,0.2,0.9,0.2,1.3
			C70.9,68,70.6,68.5,70.2,68.8z M69.6,68.2c0.4-0.3,0.6-0.6,0.6-0.9c0.1-0.9-0.3-1.6-1.3-2c-0.1-0.1-0.2-0.1-0.4-0.1
			c-0.1,0-0.1,0.1-0.1,0.3c0,0.1,0,0.6-0.1,1.7c-0.1,0.8-0.1,1.2-0.1,1.2C68.7,68.6,69.2,68.5,69.6,68.2z M68.3,64.5
			c0.1,0.1,0.3-0.1,0.6-0.3c0.2-0.2,0.4-0.4,0.5-0.5c0.1-0.2,0.1-0.4,0.1-0.6c0-0.3-0.1-0.6-0.3-0.8c-0.2-0.2-0.5-0.3-0.9-0.3
			c0,0,0,0,0,0c0,0,0,0.1,0,0.3C68.3,63.7,68.3,64.5,68.3,64.5z"/>
		<path fill="#333333" d="M75.9,68.4c0.1,0,0.3,0.1,0.4,0.2c0.1,0.1,0.1,0.2,0.1,0.3c0,0.2-0.2,0.3-0.5,0.3c-0.2,0-0.4,0-0.6-0.2
			c-0.1-0.1-0.2-0.2-0.2-0.2c0,0-0.1,0-0.1,0.1c-0.2,0.1-0.4,0.2-0.7,0.2c-0.8,0.1-1.3-0.1-1.6-0.6c-0.4-0.5-0.5-1.2-0.6-2.2
			c0-1.2,0-2.2,0-2.9c0.1-0.9,0.4-1.5,1.1-1.9c0.2-0.1,0.5-0.2,0.9-0.2c0.3,0,0.6,0.1,0.7,0.2c0.1,0.1,0.2,0.1,0.2,0.2
			c0,0,0,0,0-0.1c0,0,0-0.1,0-0.2c0-0.1,0.2-0.2,0.5-0.1c0.1,0,0.2,0,0.4,0.1c0,0.6,0.1,1,0.1,1.3c0,1.1,0.1,1.7,0.1,1.9
			c0,0.1,0,0.5,0,1.2c0,0.6,0,1.1,0,1.4c0,0.1,0,0.2,0,0.3s0,0.3,0,0.4c0,0.1,0,0.3,0,0.4C75.8,68.4,75.8,68.4,75.9,68.4
			C75.8,68.4,75.8,68.4,75.9,68.4z M74.9,68C75,68,75,67,75,65c0-1.5-0.1-2.4-0.4-2.6c-0.2-0.2-0.5-0.3-0.8-0.3
			c-0.2,0-0.4,0.1-0.6,0.4c-0.2,0.3-0.3,0.7-0.4,1.1c-0.1,0.6-0.1,1.4,0,2.4c0.1,1.2,0.2,1.9,0.4,2.1c0.2,0.2,0.5,0.3,0.9,0.2
			C74.6,68.3,74.8,68.2,74.9,68z"/>
		<path fill="#333333" d="M80.5,62.9c0.2,0.6,0.3,1.5,0.2,2.7c0,1.2-0.2,2.1-0.5,2.6c-0.4,0.7-1,1.1-1.7,1.1c-0.2,0-0.4,0-0.6-0.1
			c-0.2,0-0.2,0.5,0,1.6c0,1,0,1.6,0,1.9c0,0.4-0.2,0.6-0.6,0.6c-0.2,0-0.3-0.2-0.4-0.6c0-0.1,0-0.2,0-0.4c0-0.2,0-0.3,0-0.4
			c0-0.3,0-1.3,0-3.1c0-1.8,0-3.5,0-5.2c0,0,0-0.3,0-0.7c0-0.4,0-0.8,0-1.1c0-0.2,0.1-0.3,0.4-0.3c0.1,0,0.2,0,0.3,0.1
			c0.1,0,0.1,0.1,0.1,0.2s0.1,0.1,0.4-0.1c0.2-0.1,0.4-0.2,0.7-0.2c0.3,0,0.6,0.1,0.8,0.3C80,62,80.3,62.4,80.5,62.9z M79.5,67.8
			c0.2-0.5,0.4-1.3,0.3-2.6c0-1.1-0.1-1.9-0.3-2.3c-0.1-0.3-0.2-0.5-0.3-0.6c-0.1-0.1-0.2-0.2-0.4-0.2c-0.1,0-0.3,0.1-0.6,0.3
			c0,0-0.1,0.1-0.1,0.1C78,62.8,78,62.9,78,63c-0.1,3.3-0.1,5,0,5.2c0,0.1,0.1,0.1,0.1,0.2C78.7,68.6,79.2,68.4,79.5,67.8z"/>
	</g>
</g>
<g id="Layer_6">
</g>
<g id="img_x5F_content">
</g>
</svg>
