<?xml version="1.0" encoding="utf-8"?>
<!-- Generator: Adobe Illustrator 17.0.1, SVG Export Plug-In . SVG Version: 6.00 Build 0)  -->
<!DOCTYPE svg PUBLIC "-//W3C//DTD SVG 1.1//EN" "http://www.w3.org/Graphics/SVG/1.1/DTD/svg11.dtd">
<svg version="1.1" xmlns="http://www.w3.org/2000/svg" xmlns:xlink="http://www.w3.org/1999/xlink" x="0px" y="0px" width="88.4px"
	 height="88.4px" viewBox="0 0 88.4 88.4" enable-background="new 0 0 88.4 88.4" xml:space="preserve">
<g id="img" display="none">
</g>
<g id="Layer_3">
</g>
<g id="help">
</g>
<g id="main">
	<g>
		
			<polyline fill="none" stroke="#000000" stroke-width="2.323" stroke-linecap="round" stroke-linejoin="round" stroke-miterlimit="10" points="
			42.4,34 51.3,25.6 42.4,17.2 		"/>
		<g>
			<path fill="#333333" d="M9.9,57.2c0-1.3,0.1-2.1,0.3-2.4c0.2-0.3,0.7-0.4,1.5-0.4c0.9,0,1.4,0.2,1.7,0.5c0.1,0.1,0.2,0.3,0.2,0.7
				c0,0.1,0,0.2,0,0.4c0,0.2,0,0.3,0,0.4c0,0,0,0.9,0.1,2.5c0,1.3,0.1,2.5,0.1,3.7c0,0.7,0,1.5,0,2.4c0,0.2,0,0.5,0,0.8
				c0,0.2,0,0.4,0,0.4c0,0.1,0,0.2,0,0.4c0,0.2,0,0.3,0,0.4c0,0.1,0,0.2-0.1,0.2c-0.1,0.1-0.1,0.1-0.2,0.1c-0.2,0-0.3-0.1-0.3-0.3
				c0,0.1,0-0.2,0-0.9c0.1-3.2,0.1-5.1,0.1-5.7c0-0.2,0-0.7,0-1.4c0-0.6,0-1,0-1.2c0-0.4,0-0.9-0.1-1.7c0-0.5-0.1-0.9-0.2-1
				c-0.2-0.2-0.6-0.3-1.4-0.2c-0.6,0-1,0.1-1,0.2c-0.1,0.2-0.2,0.5-0.2,0.9c0,0.1,0,0.3,0,0.5c0,0.2,0,0.3,0,0.4c0,0.3,0,1,0,1.9
				l0,1c0,1.1,0,1.9,0,2.4c0,0.3,0,1,0,2c0.1,1.6,0.1,2.4,0.1,2.6c0,0.1,0,0.2-0.1,0.3c-0.1,0.1-0.1,0.1-0.2,0.1
				c-0.2,0-0.2-0.1-0.3-0.3c0-0.1,0-0.6,0-1.5c0-0.4,0-1.3,0-2.7c0-2.1,0-3.2,0-3.3L9.9,57.2z"/>
			<path fill="#333333" d="M15.7,66.6c-0.3-0.4-0.4-1.1-0.4-2.3c0-1.1,0-2,0.1-2.7c0.1-0.4,0.2-0.8,0.5-1.1c0.2-0.3,0.5-0.5,0.9-0.6
				c0.3-0.1,0.6-0.1,0.8,0c0.2,0.1,0.3,0.2,0.5,0.5c0.3,0.4,0.5,1.3,0.5,2.6c0,1.4,0,2.2,0,2.4c0,0.5-0.2,1-0.4,1.3
				c-0.2,0.3-0.5,0.4-0.9,0.4c-0.4,0-0.6,0-0.8-0.1C16.2,67.1,16,66.9,15.7,66.6z M16,61.8c-0.1,0.7-0.1,1.5-0.1,2.4
				c0,1.2,0.1,1.9,0.4,2.2c0.2,0.2,0.5,0.4,0.8,0.4c0.3,0.1,0.6,0,0.8-0.2c0.4-0.3,0.5-1.4,0.5-3.2c0-1.4-0.1-2.3-0.3-2.6
				c-0.2-0.3-0.5-0.5-0.8-0.5c-0.2,0-0.4,0.1-0.7,0.4C16.2,61,16,61.4,16,61.8z"/>
			<path fill="#333333" d="M22.5,66.4c0.2-0.1,0.3,0,0.4,0.1c0.1,0.1,0.1,0.3,0,0.4c-0.4,0.3-0.8,0.4-1.2,0.4c-0.4,0-0.8-0.1-1-0.4
				c-0.4-0.4-0.7-1.1-0.7-2.3c0-1.3,0-2.2,0.1-2.9c0-1,0.4-1.6,1-1.8c0.7-0.2,1.2-0.2,1.5,0.1c0.1,0.1,0.2,0.2,0.1,0.4
				c-0.1,0.1-0.1,0.2-0.3,0.1c-0.2-0.2-0.5-0.2-0.9-0.2c-0.2,0-0.4,0.1-0.6,0.2c-0.2,0.2-0.3,0.3-0.4,0.6c-0.1,0.3-0.2,1.2-0.1,2.7
				c0,1.7,0.2,2.6,0.5,2.8c0.3,0.2,0.6,0.3,1,0.2C22,66.7,22.2,66.6,22.5,66.4z"/>
			<path fill="#333333" d="M28.4,59.8c0,0,0,0.3,0,0.8c0,0.7-0.1,1.1-0.1,1.3c0,0.2,0,0.9,0,2.1c0,1.2,0,1.9,0,2c0,0.7,0,1-0.1,1.1
				c-0.1,0.2-0.2,0.1-0.3-0.1c0-0.1,0-0.7-0.1-1.9l0-2c0,0,0-0.3,0-1c0-0.5,0-0.7-0.1-0.6c0,0-0.3,0.8-0.7,2.4
				c0,0.2-0.1,0.6-0.3,1.3c-0.1,0.6-0.2,0.9-0.3,1.1c0,0.1-0.1,0.2-0.1,0.3c0,0.1-0.1,0.2-0.1,0.3c-0.1,0.2-0.2,0.3-0.2,0.3
				c-0.1,0-0.5-1.2-1-3.5c-0.2-1-0.3-1.5-0.3-1.5c-0.1-0.6-0.2-0.8-0.3-0.6c0,0.2-0.1,1.4-0.1,3.5l0.1,1.8c0,0.2,0,0.3,0,0.3
				c0,0.1-0.1,0.1-0.2,0.1c-0.2,0-0.2-0.3-0.2-1l0-0.9l0-4.1c0-1,0-1.5,0-1.4c0-0.1,0.1-0.2,0.2-0.2c0.1,0,0.2,0,0.2,0.1
				c0,0.1,0.2,0.7,0.5,1.9c0.1,0.2,0.2,0.6,0.3,1.3c0.1,0.6,0.2,0.9,0.3,1.1c0,0.1,0.1,0.5,0.3,1.4c0.1,0.6,0.2,0.9,0.3,0.8
				c0.1-0.2,0.4-1.1,0.7-2.7c0-0.2,0.1-0.6,0.2-1.1c0.1-0.5,0.2-0.8,0.2-1c0-0.2,0.1-0.5,0.2-1c0.1-0.4,0.2-0.7,0.2-0.8
				c0-0.1,0.1-0.2,0.2-0.2C28.2,59.6,28.3,59.7,28.4,59.8C28.4,59.8,28.4,59.8,28.4,59.8z"/>
			<path fill="#333333" d="M30.1,66.6c-0.3-0.4-0.4-1.1-0.4-2.3c0-1.1,0-2,0.1-2.7c0.1-0.4,0.2-0.8,0.5-1.1c0.2-0.3,0.5-0.5,0.9-0.6
				c0.3-0.1,0.6-0.1,0.8,0c0.2,0.1,0.3,0.2,0.5,0.5c0.3,0.4,0.5,1.3,0.5,2.6c0,1.4,0,2.2,0,2.4c0,0.5-0.2,1-0.4,1.3
				c-0.2,0.3-0.5,0.4-0.9,0.4c-0.4,0-0.6,0-0.8-0.1C30.6,67.1,30.4,66.9,30.1,66.6z M30.4,61.8c-0.1,0.7-0.1,1.5-0.1,2.4
				c0,1.2,0.1,1.9,0.4,2.2c0.2,0.2,0.5,0.4,0.8,0.4c0.3,0.1,0.6,0,0.8-0.2c0.4-0.3,0.5-1.4,0.5-3.2c0-1.4-0.1-2.3-0.3-2.6
				c-0.2-0.3-0.5-0.5-0.8-0.5c-0.2,0-0.4,0.1-0.7,0.4C30.6,61,30.4,61.4,30.4,61.8z"/>
			<path fill="#333333" d="M35.7,67.2c-0.1,0-0.1-1.4-0.1-4.2l0-1.7c0-0.7,0-1-0.1-1.1c-0.1-0.1-0.6-0.1-1.5-0.1
				c-0.1,0-0.1,0-0.1-0.1c0-0.1,0-0.1,0-0.2c0-0.1,0.6-0.1,1.8-0.1c1.1,0,1.6,0,1.7,0c0.2,0,0.3,0.1,0.3,0.2c0,0.2-0.1,0.2-0.2,0.2
				c-0.1,0-0.4,0-1,0c-0.2,0-0.4,0-0.4,0.1c-0.1,0.1-0.2,0.6-0.1,1.7c0,3.6,0,5.4,0,5.4C35.9,67.2,35.8,67.2,35.7,67.2z"/>
			<path fill="#333333" d="M41.8,61.2c0.2,0.6,0.3,1.5,0.2,2.6c0,1.2-0.2,2.1-0.5,2.5c-0.4,0.7-0.8,1-1.4,0.9c-0.2,0-0.3,0-0.6-0.1
				c-0.2,0-0.3-0.1-0.3,0c0,0.1-0.1,0.7,0,1.8c0,1,0,1.6,0,1.9c0,0.3-0.1,0.5-0.3,0.4c-0.1,0-0.1-0.1-0.1-0.4c0-0.1,0-0.2,0-0.4
				c0-0.2,0-0.3,0-0.4c0-0.3,0-1.3,0-3.1c0-1.8,0-3.5,0-5.2c0,0,0-0.3,0-0.7c0-0.8,0-1.1,0-1.1c0-0.1,0.1-0.1,0.2-0.1
				c0.1,0,0.2,0,0.2,0.1c0,0.2,0,0.3,0,0.4c0,0,0.2-0.1,0.7-0.4c0.2-0.1,0.4-0.1,0.6-0.1c0.2,0,0.4,0.1,0.6,0.2
				C41.4,60.3,41.6,60.6,41.8,61.2z M41.2,66.1c0.3-0.5,0.4-1.4,0.3-2.6c0-1.1-0.1-1.9-0.3-2.3c-0.1-0.3-0.2-0.5-0.4-0.7
				c-0.1-0.2-0.3-0.2-0.6-0.2c-0.2,0-0.5,0.1-0.8,0.4c0,0.1-0.1,0.1-0.1,0.1c-0.1,0.1-0.1,0.3-0.1,0.4c-0.1,3.3-0.1,5,0,5.2
				c0,0.1,0.1,0.2,0.3,0.3C40.3,67,40.8,66.8,41.2,66.1z"/>
			<path fill="#333333" d="M45.8,66.4c0.2-0.1,0.3,0,0.4,0.1c0.1,0.1,0.1,0.3,0,0.4c-0.4,0.3-0.8,0.4-1.2,0.4c-0.4,0-0.8-0.1-1-0.4
				c-0.4-0.4-0.7-1.1-0.7-2.3c0-1.3,0-2.2,0.1-2.9c0-1,0.4-1.6,1-1.8c0.6-0.2,1-0.1,1.4,0.1c0.2,0.1,0.3,0.4,0.5,0.7
				c0.1,0.3,0.2,0.7,0.1,1.2c-0.1,0.6-0.2,1-0.4,1.2c-0.2,0.2-0.5,0.3-1,0.4c-0.4,0.1-0.8,0.1-1.1,0c-0.1,0-0.1,0-0.1,0.1
				c0,1.7,0.2,2.7,0.5,2.9c0.3,0.2,0.6,0.3,1,0.2C45.3,66.7,45.5,66.6,45.8,66.4z M44.8,60.1c-0.2,0-0.4,0.1-0.6,0.2
				c-0.2,0.2-0.3,0.3-0.4,0.6c-0.1,0.2-0.1,0.8-0.1,1.9c0,0.1,0.1,0.2,0.2,0.2c0.9,0,1.5-0.1,1.7-0.4c0.2-0.3,0.3-0.6,0.3-1.1
				c0-0.4-0.1-0.8-0.2-1C45.4,60.3,45.2,60.1,44.8,60.1z"/>
			<path fill="#333333" d="M49,67.2c-0.1,0-0.1-1.4-0.1-4.2l0-1.7c0-0.7,0-1-0.1-1.1c-0.1-0.1-0.6-0.1-1.5-0.1c-0.1,0-0.1,0-0.1-0.1
				c0-0.1,0-0.1,0-0.2c0-0.1,0.6-0.1,1.8-0.1c1.1,0,1.6,0,1.7,0c0.2,0,0.3,0.1,0.3,0.2c0,0.2-0.1,0.2-0.2,0.2c-0.1,0-0.4,0-1,0
				c-0.2,0-0.4,0-0.4,0.1c-0.1,0.1-0.2,0.6-0.1,1.7c0,3.6,0,5.4,0,5.4C49.3,67.2,49.1,67.2,49,67.2z"/>
			<path fill="#333333" d="M54.4,63c0.4,0.3,0.6,0.9,0.6,1.7c0,0.8-0.1,1.4-0.4,1.8c-0.3,0.4-0.6,0.6-0.9,0.7
				c-0.2,0.1-0.6,0.1-1.2,0.1c-0.1,0-0.1,0-0.2,0c-0.1,0-0.1,0-0.1-0.1c0,0,0-0.3-0.1-0.9c0-0.2,0-2,0-5.3v-0.8c0-0.2,0-0.3,0-0.4
				c0-0.1,0.1-0.1,0.2-0.1c0.1,0,0.2,0.1,0.2,0.2c0,0,0,0.1,0,0.2c0,0.1,0,0.2,0,0.3c0,0.1,0,0.5,0,1.3c0,0.7,0,1,0.1,1.1
				c0,0,0.1,0,0.2,0l0.4-0.1c0.5-0.1,0.7-0.1,0.7-0.1S54.1,62.7,54.4,63z M54.6,64.5c-0.1-0.8-0.4-1.3-1-1.4c-0.4-0.1-0.7,0-1,0.1
				c-0.1,0-0.1,0.9-0.1,2.5c0,0.7,0,1,0.1,1.1c0.1,0.1,0.3,0.1,0.6,0.1c0.4-0.1,0.7-0.3,0.9-0.6C54.5,65.9,54.6,65.3,54.6,64.5z"/>
			<path fill="#333333" d="M60.3,67.2c-0.1,0-0.1-1.4-0.1-4.2l0-1.7c0-0.7,0-1-0.1-1.1c-0.1-0.1-0.6-0.1-1.5-0.1
				c-0.1,0-0.1,0-0.1-0.1c0-0.1,0-0.1,0-0.2c0-0.1,0.6-0.1,1.8-0.1c1.1,0,1.6,0,1.7,0c0.2,0,0.3,0.1,0.3,0.2c0,0.2-0.1,0.2-0.2,0.2
				c-0.1,0-0.4,0-1,0c-0.2,0-0.4,0-0.4,0.1c-0.1,0.1-0.2,0.6-0.1,1.7c0,3.6,0,5.4,0,5.4C60.6,67.2,60.4,67.2,60.3,67.2z"/>
			<path fill="#333333" d="M63.6,66.6c-0.3-0.4-0.4-1.1-0.4-2.3c0-1.1,0-2,0.1-2.7c0.1-0.4,0.2-0.8,0.5-1.1c0.2-0.3,0.5-0.5,0.9-0.6
				c0.3-0.1,0.6-0.1,0.8,0c0.2,0.1,0.3,0.2,0.5,0.5c0.3,0.4,0.5,1.3,0.5,2.6c0,1.4,0,2.2,0,2.4c0,0.5-0.2,1-0.4,1.3
				c-0.2,0.3-0.5,0.4-0.9,0.4c-0.4,0-0.6,0-0.8-0.1C64,67.1,63.8,66.9,63.6,66.6z M63.8,61.8c-0.1,0.7-0.1,1.5-0.1,2.4
				c0,1.2,0.1,1.9,0.4,2.2c0.2,0.2,0.5,0.4,0.8,0.4c0.3,0.1,0.6,0,0.8-0.2c0.4-0.3,0.5-1.4,0.5-3.2c0-1.4-0.1-2.3-0.3-2.6
				c-0.2-0.3-0.5-0.5-0.8-0.5c-0.2,0-0.4,0.1-0.7,0.4C64,61,63.8,61.4,63.8,61.8z"/>
			<path fill="#333333" d="M70.3,66.9c-0.1,0.1-0.4,0.2-0.8,0.3c-0.1,0-0.4,0-0.8,0c-0.5,0-0.7,0-0.8-0.1c0-0.1,0-0.9,0.1-2.6
				l-0.1-4.2c0-0.3,0-0.5,0-0.5c0-0.1,0.2-0.2,0.4-0.2c0.7,0,1.3,0.1,1.7,0.4c0.4,0.3,0.6,0.7,0.6,1.2c0,0.4-0.2,0.8-0.6,1.2
				c-0.4,0.3-0.6,0.5-0.5,0.5c0,0,0.1,0.1,0.3,0.1c0.3,0.1,0.5,0.2,0.7,0.4c0.2,0.2,0.4,0.4,0.5,0.8c0.2,0.5,0.2,0.9,0.2,1.2
				C70.9,66.2,70.6,66.6,70.3,66.9z M70,66.5c0.4-0.3,0.6-0.7,0.7-1c0.1-1-0.4-1.7-1.4-2.1c-0.2-0.1-0.3-0.1-0.5-0.1
				c-0.2,0-0.3,0.1-0.3,0.1c0,0.3,0,1-0.1,2c-0.1,0.9-0.1,1.3,0,1.4C69,67,69.5,66.9,70,66.5z M68.4,62.9c0.3,0.1,0.6,0,1-0.4
				c0.3-0.2,0.4-0.4,0.5-0.6c0.1-0.2,0.2-0.4,0.2-0.7c0-0.4-0.1-0.7-0.4-0.9C69.4,60.1,69,60,68.6,60c-0.1,0-0.2,0-0.2,0.1
				c0,0.1,0,0.2,0,0.3C68.3,62,68.3,62.8,68.4,62.9z"/>
			<path fill="#333333" d="M76.1,66.9c0.1,0,0.1,0,0.2,0.1c0,0.1,0.1,0.1,0.1,0.2c0,0.1-0.1,0.1-0.3,0.1s-0.3,0-0.4-0.1
				c-0.1-0.1-0.3-0.2-0.3-0.2c0,0-0.1,0-0.3,0.1c-0.2,0.1-0.4,0.1-0.7,0.2c-0.7,0.1-1.1-0.1-1.4-0.5c-0.3-0.5-0.5-1.2-0.6-2.1
				c0-1.2,0-2.2,0-2.9c0.1-0.8,0.4-1.4,1-1.8c0.2-0.1,0.4-0.2,0.8-0.2c0.5,0,0.8,0.2,1.1,0.5c0,0,0,0,0-0.1c0,0,0-0.1,0-0.2
				c0-0.1,0-0.1,0-0.1c0-0.1,0.1-0.1,0.2-0.1c0.1,0,0.2,0.1,0.2,0.1c0-0.1,0,0.3,0,1.1c0,1.1,0.1,1.7,0.1,1.9c0,0.1,0,0.5,0,1.2
				c0,0.6,0,1.1,0,1.4c0,0.1,0,0.2,0,0.3s0,0.3,0,0.4c0,0.1,0,0.3,0,0.4c0,0.2,0,0.3,0.1,0.3C75.9,66.9,76,66.9,76.1,66.9z
				 M75.4,66.3c0.1-0.1,0.1-1.1,0.1-3.1c0-1.5-0.1-2.4-0.4-2.7c-0.3-0.3-0.6-0.4-0.9-0.4c-0.3,0-0.6,0.2-0.8,0.5
				c-0.2,0.3-0.4,0.7-0.4,1.1c-0.1,0.6-0.1,1.4,0,2.4c0.1,1.2,0.2,1.9,0.4,2.2c0.2,0.3,0.6,0.4,1.2,0.3C75,66.7,75.3,66.5,75.4,66.3
				z"/>
			<path fill="#333333" d="M80.5,61.2c0.2,0.6,0.3,1.5,0.2,2.6c0,1.2-0.2,2.1-0.5,2.5c-0.4,0.7-0.8,1-1.4,0.9c-0.2,0-0.3,0-0.6-0.1
				c-0.2,0-0.3-0.1-0.3,0c0,0.1-0.1,0.7,0,1.8c0,1,0,1.6,0,1.9c0,0.3-0.1,0.5-0.3,0.4c-0.1,0-0.1-0.1-0.1-0.4c0-0.1,0-0.2,0-0.4
				c0-0.2,0-0.3,0-0.4c0-0.3,0-1.3,0-3.1c0-1.8,0-3.5,0-5.2c0,0,0-0.3,0-0.7c0-0.8,0-1.1,0-1.1c0-0.1,0.1-0.1,0.2-0.1
				c0.1,0,0.2,0,0.2,0.1c0,0.2,0,0.3,0,0.4c0,0,0.2-0.1,0.7-0.4c0.2-0.1,0.4-0.1,0.6-0.1c0.2,0,0.4,0.1,0.6,0.2
				C80.1,60.3,80.3,60.6,80.5,61.2z M79.9,66.1c0.3-0.5,0.4-1.4,0.3-2.6c0-1.1-0.1-1.9-0.3-2.3c-0.1-0.3-0.2-0.5-0.4-0.7
				c-0.1-0.2-0.3-0.2-0.6-0.2c-0.2,0-0.5,0.1-0.8,0.4c0,0.1-0.1,0.1-0.1,0.1C78.1,61,78,61.1,78,61.2c-0.1,3.3-0.1,5,0,5.2
				c0,0.1,0.1,0.2,0.3,0.3C79,67,79.6,66.8,79.9,66.1z"/>
		</g>
	</g>
</g>
<g id="Layer_6">
</g>
<g id="img_x5F_content">
</g>
</svg>
