<?xml version="1.0" encoding="utf-8"?>
<!-- Generator: Adobe Illustrator 17.0.1, SVG Export Plug-In . SVG Version: 6.00 Build 0)  -->
<!DOCTYPE svg PUBLIC "-//W3C//DTD SVG 1.1//EN" "http://www.w3.org/Graphics/SVG/1.1/DTD/svg11.dtd">
<svg version="1.1" xmlns="http://www.w3.org/2000/svg" xmlns:xlink="http://www.w3.org/1999/xlink" x="0px" y="0px" width="20.6px"
	 height="18px" viewBox="0 0 20.6 18" style="enable-background:new 0 0 20.6 18;" xml:space="preserve">
<g id="img">
</g>
<g id="Layer_3">
</g>
<g id="main">
	<path style="fill:#4D4D4D;" d="M19.9,6.5c0,0-6.9,2.3-8.4,1.1c-1-0.8-0.3-3.4-0.5-4.6C10.8,1.6,9.9,0,7.6,0c-8-0.1-8.5,18,2.2,18
		C24.6,18,19.9,6.5,19.9,6.5z M5.6,3.4c-0.3,0-0.5-0.3-0.5-0.6c0-0.4,0.2-0.6,0.5-0.6C5.8,2.2,6,2.5,6,2.8C6,3.2,5.8,3.4,5.6,3.4z
		 M2.9,2.3c-0.6,1-1.3,2.7-1.3,3C0.4,4.7-0.1,3.9,0,2.9C0.3,1.3,1,2,2.2,2.2C2.4,2.3,2.6,2.3,2.9,2.3z"/>
</g>
<g id="help" style="display:none;">
</g>
<g id="img_x5F_content">
</g>
</svg>
