<?xml version="1.0" encoding="utf-8"?>
<!-- Generator: Adobe Illustrator 17.0.1, SVG Export Plug-In . SVG Version: 6.00 Build 0)  -->
<!DOCTYPE svg PUBLIC "-//W3C//DTD SVG 1.1//EN" "http://www.w3.org/Graphics/SVG/1.1/DTD/svg11.dtd">
<svg version="1.1" xmlns="http://www.w3.org/2000/svg" xmlns:xlink="http://www.w3.org/1999/xlink" x="0px" y="0px" width="20.9px"
	 height="21.2px" viewBox="0 0 20.9 21.2" enable-background="new 0 0 20.9 21.2" xml:space="preserve">
<g id="img" display="none">
</g>
<g id="Layer_3">
</g>
<g id="main">
	<g>
		<path fill="#4D4D4D" d="M20.9,8.3c0-0.1,0-0.2,0-0.2h0C20.7,3.6,17,0,12.5,0c-0.1,0-0.2,0-0.2,0v8.1H5.2l-5-0.4L0,8.5l4.4,1.1
			c0.6,4,4,7,8.2,7C17.1,16.6,20.9,12.9,20.9,8.3z"/>
		<path fill="#4D4D4D" d="M9,17.9c-0.9,0-1.7,0.7-1.7,1.7s0.7,1.7,1.7,1.7c0.9,0,1.7-0.7,1.7-1.7S10,17.9,9,17.9z"/>
		<path fill="#4D4D4D" d="M16.3,17.9c-0.9,0-1.7,0.7-1.7,1.7s0.7,1.7,1.7,1.7s1.7-0.7,1.7-1.7S17.2,17.9,16.3,17.9z"/>
	</g>
</g>
<g id="help" display="none">
</g>
<g id="img_x5F_content">
</g>
</svg>
