<?xml version="1.0" encoding="utf-8"?>
<!-- Generator: Adobe Illustrator 17.0.1, SVG Export Plug-In . SVG Version: 6.00 Build 0)  -->
<!DOCTYPE svg PUBLIC "-//W3C//DTD SVG 1.1//EN" "http://www.w3.org/Graphics/SVG/1.1/DTD/svg11.dtd">
<svg version="1.1" xmlns="http://www.w3.org/2000/svg" xmlns:xlink="http://www.w3.org/1999/xlink" x="0px" y="0px" width="12.9px"
	 height="22.8px" viewBox="0 0 12.9 22.8" style="enable-background:new 0 0 12.9 22.8;" xml:space="preserve">
<g id="img">
</g>
<g id="Layer_3">
</g>
<g id="main">
	<g>
		<path style="fill:#4D4D4D;" d="M2.3,7.5l4.3-1.1C7.3,6.3,8,5.8,8,5.3c0.1-0.4-0.5-0.9-1.2-1.1L6.2,4.1C5.5,3.9,4.8,3.5,4.7,3.2
			s0-0.9,0.1-1.4c0.1-0.5,0-1.1-0.4-1.5C4.1,0.1,3.3-0.1,2.7,0.1S1.4,0.7,1.3,1.2c-0.1,0.5,0,1.1,0.4,1.5C2,3,2.3,3.5,2.4,3.8
			c0.1,0.3-0.3,0.9-0.9,1.4L1,5.6C0.5,6.1,0.2,6.8,0.5,7.2C0.7,7.6,1.5,7.7,2.3,7.5z M10.8,9.4C10.2,7.7,8.3,6.6,6.5,7
			C5.2,7.3,4,7.6,2.7,8c-1.8,0.4-3,2.3-2.7,4.2c0.6,2.7,1.2,5.5,2,8.2c0.5,1.8,2.5,2.9,4.3,2.4c1.2-0.3,2.5-0.6,3.7-0.9
			c1.8-0.4,3-2.3,2.7-4.2C12.3,14.9,11.6,12.1,10.8,9.4z"/>
	</g>
</g>
<g id="help" style="display:none;">
</g>
<g id="img_x5F_content">
</g>
</svg>
