<?xml version="1.0" encoding="utf-8"?>
<!-- Generator: Adobe Illustrator 17.0.1, SVG Export Plug-In . SVG Version: 6.00 Build 0)  -->
<!DOCTYPE svg PUBLIC "-//W3C//DTD SVG 1.1//EN" "http://www.w3.org/Graphics/SVG/1.1/DTD/svg11.dtd">
<svg version="1.1" xmlns="http://www.w3.org/2000/svg" xmlns:xlink="http://www.w3.org/1999/xlink" x="0px" y="0px" width="20.8px"
	 height="17.5px" viewBox="0 0 20.8 17.5" style="enable-background:new 0 0 20.8 17.5;" xml:space="preserve">
<g id="img">
</g>
<g id="Layer_3">
</g>
<g id="main">
	<g>
		<path style="fill:#4D4D4D;" d="M20.3,5.8l0.4-2.2l-5.6-1.1l-8-1.5L1.5,0L1.1,2.2L5.5,3L5.3,4.5L0.8,3.6L0.5,5.6
			C4.5,7.4,7,11.8,6.1,16.3c0,0.1,0,0.2-0.1,0.3c0.7,0.3,1.4,0.5,2.2,0.6c0.8,0.1,1.5,0.2,2.3,0.2c0-0.1,0-0.2,0.1-0.3
			c0.9-4.5,4.8-7.8,9.2-7.9l0.4-1.9l-4.4-0.8L15.9,5L20.3,5.8L20.3,5.8z"/>
		<path style="fill:#4D4D4D;" d="M3.3,9.8C2.7,9,2,8.2,1.1,7.6C0.8,7.4,0.5,7.2,0.2,7.1L0.1,7.4l0,0c-0.6,3.4,1.2,6.7,4.5,8.6
			c0.2-1.1,0.2-2.2,0-3.2C4.4,11.7,3.9,10.7,3.3,9.8z"/>
		<path style="fill:#4D4D4D;" d="M15.5,12.2c-0.9,0.6-1.6,1.4-2.2,2.3c-0.6,0.9-1,1.9-1.2,3c3.7-0.6,6.7-3,7.4-6.4l0.1-0.3
			c-0.3,0-0.7,0.1-1,0.2C17.3,11.1,16.4,11.6,15.5,12.2z"/>
	</g>
</g>
<g id="help" style="display:none;">
</g>
<g id="img_x5F_content">
</g>
</svg>
