<?xml version="1.0" encoding="utf-8"?>
<!-- Generator: Adobe Illustrator 17.0.1, SVG Export Plug-In . SVG Version: 6.00 Build 0)  -->
<!DOCTYPE svg PUBLIC "-//W3C//DTD SVG 1.1//EN" "http://www.w3.org/Graphics/SVG/1.1/DTD/svg11.dtd">
<svg version="1.1" xmlns="http://www.w3.org/2000/svg" xmlns:xlink="http://www.w3.org/1999/xlink" x="0px" y="0px"
	 width="105.135px" height="64.519px" viewBox="0 0 105.135 64.519" enable-background="new 0 0 105.135 64.519"
	 xml:space="preserve">
<g id="img" display="none">
</g>
<g id="Layer_3">
</g>
<g id="help">
</g>
<g id="main">
	<g>
		<path fill="#4D4D4D" d="M33.672,50.319c0,0,0.833,0.233,1.019,0.511c0.982,1.45,3.336,6.198,3.767,11.3
			c0,0-14.321,4.473-30.134,1.177c0,0,3.807-5.965,6.985-8.32c0,0,0.431-0.353,0.196-1.413c0,0-5.431-0.579-8.24-3.02
			c-1.803-1.57-1.238-3.524-1.49-4.355c-0.52-0.664-2.119-1.335-1.453-2.196c-0.471-0.08-1.648-0.276-1.843-1.139
			c-0.196-0.862,0.077-2.509,0.077-3.06c0,0-2.943-0.744-2.509-2.509c0.431-1.766,2.785-2.905,2.745-5.768
			c-0.037-2.865-1.161-2.128-1.726-5.003c-1.335-6.78,0.129-11.705,2.018-14.999c-0.049-0.014-0.099-0.031-0.148-0.047
			c-0.351-0.123-0.671-0.285-0.958-0.48c-1.066-0.363-1.846-1.17-1.963-2.183C-0.007,8.61-0.005,8.41,0.026,8.21
			c0.092,0.445,0.638,1.215,0.638,1.215s0.037-0.092,0.323,0.304c0.584,0.488,1.385,0.81,2.276,0.862
			c0.132,0.007,0.264,0.009,0.393,0.005c0.16-0.247,0.325-0.482,0.485-0.706C3.804,9.823,3.47,9.697,3.156,9.514
			C1.673,8.638,1.188,6.715,2.071,5.22c0.217,1.723,1.775,2.95,3.484,2.736C5.64,7.944,5.725,7.93,5.807,7.913
			C6.116,7.597,6.403,7.329,6.655,7.11C6.67,7.096,6.683,7.085,6.7,7.07c0.596-0.52,0.986-0.772,0.986-0.772
			c3.02-2.001,9.193-5.692,17.669-6.201c8.475-0.512,10.789,1.018,13.457,4.156c0,0,6.474,3.296,7.651,11.027
			c1.434,9.405-2.236,24.639-8.277,26.798C38.185,42.079,32.809,43.334,33.672,50.319z"/>
		<g>
			<path fill="#333333" d="M65.87,29.202c-0.657-1.314-1.177-2.482-1.545-3.473c-1.201-3.199-1.538-4.26-1.626-4.604
				c0.322-0.524,0.889-1.752,2.22-4.634c0.051-0.118,0.205-0.4,0.454-0.842c0.289-0.493,0.469-0.819,0.545-0.981
				c0.043-0.094,0.197-0.37,0.452-0.815c0.363-0.584,0.424-0.814,0.437-1.013c0-0.539-0.357-0.901-0.888-0.901
				c-0.43,0-0.807,0.354-1.786,2.365c-0.107,0.214-0.331,0.671-0.67,1.368l-0.856,1.739c-0.357,0.718-0.629,1.24-0.837,1.62
				c0.024-0.702,0.095-1.818,0.259-3.592c0-2.991,0-2.991-0.107-3.15c-0.219-0.337-0.564-0.481-1.078-0.321
				c-0.461,0.159-0.725,0.517-0.725,0.981c0,0.116,0.035,1.73,0.107,4.844c0.071,3.125,0.107,4.786,0.107,4.982
				c0,0.168-0.018,0.738-0.053,1.714c-0.027,1.064-0.045,1.887-0.054,2.47c-0.009,0.744-0.031,1.511-0.066,2.304
				c-0.027,0.759-0.041,1.238-0.041,1.437c0,0.481,0,1.758,0.888,1.758c0.768,0,0.795-1.073,0.808-1.544v-0.949
				c-0.008-0.367-0.005-0.643,0.012-0.833c0.055-0.697,0.086-2.325,0.095-4.979c0-0.069-0.001-0.156-0.005-0.26
				c0.266,0.705,0.618,1.651,1.083,2.921c0.673,1.85,1.361,3.475,2.046,4.835c0.193,0.377,0.474,0.811,0.938,0.811l0.132-0.013
				c0.417-0.087,0.815-0.445,0.689-1.165C66.788,31.155,66.765,30.964,65.87,29.202z"/>
			<path fill="#333333" d="M70.73,15.262c0,0.053-0.004,0.354-0.013,0.901c-0.009,0.537-0.005,1.049,0.014,1.538
				c0.026,0.835,0.04,1.977,0.04,3.426l0.014,5.361l-0.054,4.571c0,0.323,0,1.18,0.661,1.369c0.087,0.021,0.172,0.032,0.255,0.032
				c0.331,0,0.609-0.167,0.781-0.47c0.09-0.157,0.124-0.216,0.053-2.554l-0.005-1.049c-0.02-3.721-0.031-5.918-0.034-6.591
				c0.139-0.084,0.427-0.243,1.017-0.523c0.348-0.157,0.725-0.476,1.148-0.97c0.474-0.543,0.792-1.078,0.945-1.587
				c0.275-0.891,0.391-1.778,0.343-2.635c-0.04-0.797-0.304-1.641-0.818-2.558c-0.397-0.546-0.832-0.958-1.291-1.223
				c-0.566-0.329-1.182-0.496-1.831-0.496c-1.024,0-1.195,0.595-1.221,0.852c-0.056,0.568-0.065,1.145-0.029,1.683
				C70.703,14.549,70.712,14.864,70.73,15.262z M72.399,17.016c0-2.135,0.034-2.891,0.06-3.157c0.05,0,0.14,0.012,0.282,0.064
				c0.513,0.192,0.861,0.523,1.069,1.016c0.313,0.723,0.44,1.489,0.375,2.28c-0.07,0.922-0.407,1.624-1.014,2.133
				c-0.197,0.153-0.441,0.293-0.725,0.416C72.426,19.346,72.405,18.542,72.399,17.016z"/>
			<path fill="#333333" d="M83.125,32.455l0.075,0.001c0.641,0,1.232-0.271,1.76-0.81c0.296-0.308,0.575-0.784,0.854-1.459
				c0.307-0.763,0.556-1.774,0.741-3.007c0.055-0.385,0.157-1.485,0.313-3.392c0.054-2.216-0.033-4.355-0.257-6.358
				c-0.058-0.526-0.299-1.517-0.739-3.03c-0.261-0.902-0.619-1.551-1.092-1.982c-0.431-0.397-0.979-0.604-1.722-0.616
				c-0.705,0-1.283,0.227-1.714,0.669c-0.394,0.394-0.706,0.988-0.955,1.813c-0.218,0.709-0.382,1.683-0.502,2.982
				c-0.037,0.428-0.086,1.76-0.149,4.072c-0.019,0.669,0.021,1.778,0.122,3.396c0.146,2.079,0.29,3.401,0.441,4.045
				c0.297,1.233,0.555,2,0.819,2.421C81.647,31.999,82.32,32.421,83.125,32.455z M83.113,13.446v-0.493l0,0l0.013,0.493
				c0.363,0.012,0.717,0.322,1.048,0.915c0.048,0.088,0.199,0.449,0.573,1.885c0.16,0.606,0.267,1.401,0.318,2.362
				c0.062,1.192,0.088,2.118,0.08,2.75c-0.009,0.503-0.013,0.868-0.013,1.093c0,0.663-0.058,1.968-0.173,3.877
				c-0.068,1.07-0.292,2.111-0.663,3.089c-0.24,0.612-0.633,1.342-1.138,1.343c-0.136-0.004-0.497-0.016-0.773-0.742
				c-0.021-0.064-0.109-0.401-0.466-2.136c-0.147-0.744-0.28-1.86-0.394-3.315c-0.07-0.896-0.079-2.441-0.025-4.593
				C81.66,13.916,82.775,13.446,83.113,13.446z"/>
			<path fill="#333333" d="M95.647,31.54c0-0.31-0.047-0.697-0.144-1.185c-1.087-5.329-1.651-8.458-1.678-9.254
				c0.01-0.105,0.125-0.793,0.782-4.218c0.368-1.88,0.651-3.068,0.841-3.533c0.108-0.261,0.113-0.554,0.021-0.856
				c-0.174-0.648-0.611-0.718-0.791-0.718c-0.274,0-0.622,0.122-0.854,0.643l-0.074,0.193c-0.019,0.058-0.037,0.12-0.054,0.186
				l0.476,0.128l-0.001,0.001l-0.485-0.062c-0.023,0.183-0.517,3.054-0.679,3.994c-0.09,0.5-0.168,0.918-0.236,1.27
				c-0.077-0.419-0.164-0.932-0.264-1.557c-0.745-4.509-0.991-4.596-1.339-4.717c-0.579-0.193-1.058,0.091-1.192,0.659
				c-0.036,0.143-0.058,0.229,0.28,1.606c0.409,1.679,0.67,2.797,0.786,3.355c0.449,2.211,0.686,3.394,0.7,3.446
				c-0.002,0.076-0.044,0.47-0.396,2.479c-0.009,0.054-0.068,0.502-0.175,1.338c-0.097,0.703-0.203,1.34-0.317,1.913
				c-0.099,0.504-0.216,1.174-0.352,2.02c-0.118,0.815-0.181,1.12-0.214,1.234c-0.184,0.651-0.306,1.203-0.363,1.64
				c-0.039,0.313,0.063,0.516,0.156,0.631c0.09,0.112,0.259,0.251,0.568,0.278l0.064,0.001c0.307,0,0.568-0.124,0.741-0.354
				c0.096-0.132,0.191-0.33,0.383-1.426l-0.016-0.003c0.005-0.026,0.011-0.054,0.016-0.083h0.007l-0.007,0
				c0.044-0.246,0.087-0.611,0.15-1.156c0.106-0.857,0.23-1.692,0.371-2.505c0.187-1.057,0.335-1.901,0.453-2.576
				c0.122,0.754,0.273,1.751,0.46,3.068c0.349,2.465,0.516,3.64,0.661,4.2h-0.037c0,0.379,0.25,0.821,0.955,0.821
				C95.219,32.442,95.647,32.206,95.647,31.54z M94.397,31.621L94.397,31.621L94.397,31.621L94.397,31.621z"/>
			<path fill="#333333" d="M102.834,30.813c-0.763,0.031-1.258,0.013-1.428-0.009c-0.037-0.146-0.092-0.493-0.099-1.271
				c0-0.382,0.066-2.957,0.197-7.664c0.07-0.013,0.162-0.029,0.275-0.048c0.16-0.023,0.575-0.014,1.295,0.02
				c0.238,0,0.44-0.105,0.556-0.289c0.203-0.323,0.028-0.685-0.036-0.816c-0.22-0.425-0.499-0.65-0.855-0.672l-0.753-0.003
				c-0.205,0-0.375,0-0.517,0.002c-0.032-0.408-0.081-1.23-0.149-2.884l-0.09-3.774c0.155-0.034,0.523-0.071,1.128-0.051
				c1.452,0.042,2.144,0.004,2.335-0.489c0.092-0.213,0.081-0.442-0.032-0.628c-0.2-0.332-0.621-0.404-0.936-0.427
				c-0.149-0.02-0.364-0.031-0.643-0.031l-0.376,0.004c-0.357-0.048-1.05-0.052-2.092-0.004c-0.287,0.01-0.538,0.126-0.725,0.336
				c-0.321,0.357-0.438,0.957-0.371,1.89c0.124,1.555,0.2,5.493,0.226,11.701c0,0.428-0.009,1.287-0.026,2.576
				c-0.018,1.159-0.022,1.846-0.014,2.047c0.014,1.663,0.04,1.706,0.126,1.848l0.115,0.131c0.24,0.192,0.625,0.159,1.617,0.123
				c0.618,0.027,1.143,0.04,1.576,0.04c1.325,0,1.667-0.118,1.863-0.349l0.135-0.195v-0.184
				C105.135,30.996,104.33,30.697,102.834,30.813z"/>
			<path fill="#333333" d="M65.789,41.798c0-0.706,0.013-1.349,0.04-1.934c0.011-0.25,0.019-0.448,0.025-0.595l0.016-0.349
				c0-0.365,0-1.478-0.821-1.478c-0.389,0-0.781,0.271-0.781,0.883c0.083,5.281,0.05,6.999,0.01,7.525
				c-0.136,0.025-0.4,0.055-0.891,0.055l-0.27-0.003c-0.744-0.014-1.102-0.059-1.254-0.083c-0.054-0.405-0.106-1.698,0.059-5.802
				c0-0.704-0.009-1.29-0.028-1.779c-0.045-0.579-0.451-0.787-0.864-0.781c-0.349,0.031-0.736,0.282-0.776,0.898
				c-0.09,1.617-0.094,6.177-0.015,13.564c0.009,0.291,0.009,0.909,0,1.854c-0.009,0.82-0.009,1.415,0,1.791
				c0.028,0.76,0.046,1.271,0.053,1.531l-0.072,0.067l0.096,0.303c0.128,0.402,0.466,0.643,0.905,0.643
				c0.348,0,0.754-0.232,0.754-0.888c0-2.785,0.013-4.41,0.04-4.829c0.046-0.747,0.033-1.829-0.04-3.305
				c-0.041-0.95-0.052-1.418-0.053-1.65c0.201-0.044,0.662-0.104,1.674-0.105c0.313-0.011,0.554-0.003,0.681,0.011
				c0.036,0.646,0.061,2.833-0.035,9.704c0,1.011,0.717,1.062,0.861,1.062c0.338,0,0.619-0.158,0.793-0.449
				c0.109-0.187,0.162-0.414,0.162-0.693c0-2.805-0.027-5.111-0.081-6.857C65.852,46.383,65.789,43.587,65.789,41.798z"/>
			<path fill="#333333" d="M77.175,49.055c-0.071-0.671-0.165-1.516-0.282-2.534c-0.088-0.779-0.142-1.267-0.159-1.455
				c-0.012-0.153-0.054-0.499-0.274-1.724c-0.214-1.181-0.34-1.864-0.373-2.039c-0.12-0.739-0.361-1.636-0.717-2.666
				c-0.264-0.766-0.648-1.154-1.142-1.154c-0.594,0-0.912,0.703-1.23,1.836c-0.119,0.419-0.214,0.783-0.283,1.078
				c-0.069,0.255-0.156,0.756-0.266,1.527c-0.419,2.765-0.66,4.343-0.721,4.724c-0.153,0.834-0.334,2.123-0.54,3.829
				c-0.222,1.759-0.364,2.839-0.426,3.234c-0.579,3.501-0.489,3.651-0.367,3.854c0.214,0.367,0.596,0.569,1.075,0.569
				c0.19,0,0.635-0.087,0.661-0.915c0-0.037-0.004-0.194-0.013-0.455c0-0.204,0.004-0.382,0.013-0.542
				c0.026-0.638,0.162-1.528,0.406-2.653c0.092-0.462,0.188-0.588,0.176-0.588c0,0,0,0,0,0c0.514-0.252,1.175-0.306,1.992-0.155
				c0.595,0.104,0.885,0.182,1.02,0.228c0.322,1.424,0.373,2.857,0.151,4.275c-0.028,0.213,0.029,0.413,0.162,0.563
				c0.153,0.175,0.387,0.264,0.692,0.264c0.061,0,0.126-0.003,0.203-0.011c0.319-0.034,0.589-0.202,0.764-0.48
				c0.102-0.17,0.152-0.382,0.152-0.646l-0.001-0.303C77.677,54.268,77.451,51.69,77.175,49.055z M75.552,51.112
				c-0.24,0.041-0.771,0.093-1.92,0.093c-0.292,0-0.61-0.003-0.924-0.007c0.009-0.105,0.032-0.266,0.085-0.511
				c0.047-0.249,0.132-0.914,0.259-2.024c0.15-1.143,0.284-2.046,0.397-2.705c0.116-0.622,0.271-1.409,0.467-2.361
				c0.19-0.931,0.298-1.483,0.324-1.649c0.07-0.408,0.13-0.741,0.182-1.012c0.147,0.638,0.335,1.661,0.557,3.296
				C75.361,47.08,75.553,49.389,75.552,51.112z"/>
			<path fill="#333333" d="M91.196,55.761c-0.254-0.828-0.548-1.33-0.924-1.581c-0.156-0.104-0.354-0.182-0.616-0.236
				c0.012-0.643,0.001-1.708-0.031-3.161c0.009-3.232,0.013-4.933,0.013-5.1l0.014-3.404c0.074-3.187-0.242-3.97-0.566-4.319
				c-0.239-0.252-0.732-0.411-2.451-0.423c-2.375,0-2.81,0.256-3.018,0.481c-0.199,0.2-0.405,0.406-0.32,4.291l0.013,3.425
				c0,0.161,0.009,1.857,0.027,5.065c-0.065,1.465-0.083,2.502-0.038,3.152c-0.201,0.045-0.378,0.122-0.523,0.225
				c-0.388,0.25-0.688,0.754-0.943,1.583c-0.099,0.318-0.177,0.569-0.236,0.753l-0.058-0.009l-0.094,0.472
				c-0.05,0.249-0.09,0.612,0.134,0.885c0.292,0.356,0.946,0.282,1.089,0.155c0.404-0.203,0.456-0.689,0.473-0.847
				c0.024-0.222,0.079-0.494,0.165-0.829c0.092-0.409,0.192-0.613,0.236-0.688c0.006-0.004,0.151-0.101,0.762-0.101h0.415
				c0.117,0,0.446-0.004,0.992-0.013c1.14-0.034,1.45-0.033,1.725-0.013c0.106,0,0.22,0.004,0.346,0.012
				c0.164,0.01,0.293,0.014,0.39,0.014h0.388c0.701,0,0.904,0.096,0.897,0.074c0.07,0.109,0.17,0.321,0.266,0.728
				c0.082,0.321,0.137,0.593,0.161,0.813c0.017,0.16,0.069,0.646,0.397,0.801c0.155,0.117,0.354,0.141,0.622,0.141
				c0.219,0,0.412-0.088,0.543-0.249c0.224-0.273,0.184-0.636,0.128-0.912C91.494,56.623,91.364,56.219,91.196,55.761z
				 M87.903,50.098c0,0.278,0.009,0.919,0.027,1.919l0.021,1.851h-0.846c-0.108,0-0.53,0.014-1.258,0.04
				c-0.363,0.009-0.65,0.016-0.871,0.021c0.012-0.622,0.036-1.877,0.072-3.766c0.018-0.776,0.005-1.989-0.04-3.697l-0.013-1.592
				c-0.009-1.466-0.009-2.439,0-2.917c0.042-1.717,0.107-2.337,0.145-2.56c0.14-0.042,0.495-0.111,1.336-0.125
				c0.135,0,0.285-0.01,0.433-0.029c0.075-0.007,0.129-0.007,0.291,0.002h0.281c0.114,0,0.174,0.01,0.252,0.024
				c0.028,0.003,0.049,0.007,0.065,0.011c0.03,0.206,0.085,0.817,0.16,2.629c0.017,0.472,0.017,1.45,0,2.91l-0.013,1.586
				C87.907,48.109,87.894,49.342,87.903,50.098z"/>
			<path fill="#333333" d="M101.344,40.052c-0.261-0.902-0.619-1.551-1.092-1.982c-0.431-0.397-0.979-0.604-1.722-0.616
				c-0.705,0-1.283,0.227-1.714,0.669c-0.394,0.394-0.706,0.988-0.955,1.813c-0.218,0.709-0.382,1.683-0.502,2.982
				c-0.037,0.428-0.086,1.76-0.149,4.072c-0.019,0.669,0.021,1.778,0.122,3.396c0.146,2.079,0.29,3.401,0.441,4.045
				c0.297,1.233,0.555,2,0.819,2.421c0.528,0.798,1.202,1.221,2.007,1.254l0.075,0.001c0.641,0,1.232-0.271,1.76-0.81
				c0.296-0.308,0.575-0.784,0.854-1.459c0.307-0.763,0.556-1.774,0.741-3.007c0.055-0.385,0.157-1.485,0.313-3.392
				c0.054-2.216-0.033-4.355-0.257-6.358C102.026,42.556,101.784,41.565,101.344,40.052z M98.631,56.412
				c-0.136-0.004-0.497-0.016-0.773-0.742c-0.021-0.064-0.109-0.401-0.466-2.136c-0.147-0.744-0.28-1.86-0.394-3.315
				c-0.07-0.896-0.079-2.441-0.025-4.593c0.161-6.058,1.275-6.528,1.613-6.528v-0.493l0,0l0.013,0.493
				c0.363,0.012,0.717,0.322,1.048,0.915c0.048,0.088,0.199,0.449,0.573,1.885c0.16,0.606,0.267,1.401,0.318,2.362
				c0.062,1.192,0.088,2.118,0.08,2.75c-0.009,0.503-0.013,0.868-0.013,1.093c0,0.663-0.058,1.968-0.173,3.877
				c-0.068,1.07-0.292,2.111-0.663,3.089C99.529,55.681,99.136,56.411,98.631,56.412z"/>
		</g>
	</g>
</g>
<g id="Layer_6">
</g>
<g id="img_x5F_content">
</g>
</svg>
