<?xml version="1.0" encoding="utf-8"?>
<!-- Generator: Adobe Illustrator 20.1.0, SVG Export Plug-In . SVG Version: 6.00 Build 0)  -->
<svg version="1.1" xmlns="http://www.w3.org/2000/svg" xmlns:xlink="http://www.w3.org/1999/xlink" x="0px" y="0px"
	 viewBox="0 0 104.6 64.5" style="enable-background:new 0 0 104.6 64.5;" xml:space="preserve"  width="105.135px" height="64.519px">
<style type="text/css">
	.st0{opacity:0.45;}
	.st1{fill:none;stroke:#BCA3A0;stroke-width:2;stroke-linecap:round;stroke-miterlimit:10;}
	.st2{fill:none;stroke:#968392;stroke-width:2;stroke-miterlimit:10;}
	.st3{fill:none;stroke:#7F7F7F;stroke-miterlimit:10;}
	.st4{fill:none;stroke:#EBCD4D;stroke-miterlimit:10;}
	.st5{fill:#666666;}
	.st6{fill:#E6E6E6;}
	.st7{fill:#7D91AA;}
	.st8{fill:#8FA5C5;}
	.st9{fill:#7F7F7F;stroke:#7F7F7F;stroke-miterlimit:10;}
	.st10{fill:#7F7F7F;}
	.st11{fill:#EBCD4D;}
	.st12{fill:#4D4D4D;}
	.st13{fill:none;stroke:#4D4D4D;stroke-miterlimit:10;}
	.st14{fill:none;stroke:#4D4D4D;stroke-linecap:round;stroke-linejoin:round;stroke-miterlimit:10;}
	.st15{fill:#424242;}
	.st16{fill:none;stroke:#B3B3B3;stroke-miterlimit:10;}
	.st17{fill:none;stroke:#EBCD4D;stroke-width:2;stroke-miterlimit:10;}
	.st18{fill:#B3B3B3;}
	.st19{fill:none;stroke:#B3B3B3;stroke-width:2;stroke-miterlimit:10;}
	.st20{fill:#F2F2F2;stroke:#EBCD4D;stroke-width:2;stroke-miterlimit:10;}
	.st21{fill:#F2F2F2;}
	.st22{fill:none;stroke:#7F7F7F;stroke-width:1.1121;stroke-miterlimit:10;}
	.st23{fill:#EBCD4D;stroke:#7F7F7F;stroke-width:1.1121;stroke-miterlimit:10;}
	.st24{fill:none;stroke:#EBCD4D;stroke-width:1.1121;stroke-miterlimit:10;}
	.st25{fill:none;stroke:#7F7F7F;stroke-width:2;stroke-miterlimit:10;}
	.st26{fill:#F2F2F2;stroke:#7F7F7F;stroke-width:1.1121;stroke-miterlimit:10;}
	.st27{fill:none;stroke:#CCCCCC;stroke-miterlimit:10;}
	.st28{fill:none;stroke:#333333;stroke-linecap:round;stroke-linejoin:round;stroke-miterlimit:10;}
	.st29{fill:none;stroke:#CCCCCC;stroke-width:1.6085;stroke-miterlimit:10;}
	.st30{fill:none;stroke:#8FA5C5;stroke-miterlimit:10;}
	.st31{fill:#999999;}
	.st32{fill:#BD2F2F;}
	.st33{fill:#F2F2F2;stroke:#333333;stroke-miterlimit:10;}
	.st34{stroke:#FFFFFF;stroke-width:0.2;stroke-miterlimit:10;}
	.st35{fill:#1A1A1A;}
	.st36{opacity:0.54;fill:#333333;}
</style>
<g id="img">
</g>
<g id="Layer_3">
</g>
<g id="main">
	<g id="add">
	</g>
	<g>
		<path class="st12" d="M13.1,50.3c0,0-0.8,0.2-1,0.5c-1,1.5-3.3,6.2-3.8,11.3c0,0,14.3,4.5,30.1,1.2c0,0-3.8-6-7-8.3
			c0,0-0.4-0.4-0.2-1.4c0,0,5.4-0.6,8.2-3c1.8-1.6,1.2-3.5,1.5-4.4c0.5-0.7,2.1-1.3,1.5-2.2c0.5-0.1,1.6-0.3,1.8-1.1
			c0.2-0.9-0.1-2.5-0.1-3.1c0,0,2.9-0.7,2.5-2.5c-0.4-1.8-2.8-2.9-2.7-5.8c0-2.9,1.2-2.1,1.7-5c1.3-6.8-0.1-11.7-2-15
			c0,0,0.1,0,0.1,0c0.4-0.1,0.7-0.3,1-0.5c1.1-0.4,1.8-1.2,2-2.2c0-0.2,0-0.4,0-0.6c-0.1,0.4-0.6,1.2-0.6,1.2s0-0.1-0.3,0.3
			c-0.6,0.5-1.4,0.8-2.3,0.9c-0.1,0-0.3,0-0.4,0c-0.2-0.2-0.3-0.5-0.5-0.7c0.3-0.1,0.7-0.2,1-0.4c1.5-0.9,2-2.8,1.1-4.3
			c-0.2,1.7-1.8,2.9-3.5,2.7c-0.1,0-0.2,0-0.3,0c-0.3-0.3-0.6-0.6-0.8-0.8c0,0,0,0,0,0c-0.6-0.5-1-0.8-1-0.8c-3-2-9.2-5.7-17.7-6.2
			C12.9-0.4,10.6,1.1,8,4.3c0,0-6.5,3.3-7.7,11c-1.4,9.4,2.2,24.6,8.3,26.8C8.6,42.1,14,43.3,13.1,50.3z"/>
		<g>
			<path class="st12" d="M65.3,20c-0.7-1.3-1.2-2.5-1.5-3.5c-1.2-3.2-1.5-4.3-1.6-4.6c0.3-0.5,0.9-1.8,2.2-4.6
				c0.1-0.1,0.2-0.4,0.5-0.8c0.3-0.5,0.5-0.8,0.5-1c0-0.1,0.2-0.4,0.5-0.8c0.4-0.6,0.4-0.8,0.4-1c0-0.5-0.4-0.9-0.9-0.9
				c-0.4,0-0.8,0.4-1.8,2.4c-0.1,0.2-0.3,0.7-0.7,1.4L62,8.3c-0.4,0.7-0.6,1.2-0.8,1.6c0-0.7,0.1-1.8,0.3-3.6c0-3,0-3-0.1-3.2
				c-0.2-0.3-0.6-0.5-1.1-0.3c-0.5,0.2-0.7,0.5-0.7,1c0,0.1,0,1.7,0.1,4.8c0.1,3.1,0.1,4.8,0.1,5c0,0.2,0,0.7-0.1,1.7
				c0,1.1,0,1.9-0.1,2.5c0,0.7,0,1.5-0.1,2.3c0,0.8,0,1.2,0,1.4c0,0.5,0,1.8,0.9,1.8c0.8,0,0.8-1.1,0.8-1.5v-0.9c0-0.4,0-0.6,0-0.8
				c0.1-0.7,0.1-2.3,0.1-5c0-0.1,0-0.2,0-0.3c0.3,0.7,0.6,1.7,1.1,2.9c0.7,1.8,1.4,3.5,2,4.8c0.2,0.4,0.5,0.8,0.9,0.8l0.1,0
				c0.4-0.1,0.8-0.4,0.7-1.2C66.2,22,66.2,21.8,65.3,20z"/>
			<path class="st12" d="M70.2,6.1c0,0.1,0,0.4,0,0.9c0,0.5,0,1,0,1.5c0,0.8,0,2,0,3.4l0,5.4l-0.1,4.6c0,0.3,0,1.2,0.7,1.4
				c0.1,0,0.2,0,0.3,0c0.3,0,0.6-0.2,0.8-0.5c0.1-0.2,0.1-0.2,0.1-2.6l0-1c0-3.7,0-5.9,0-6.6c0.1-0.1,0.4-0.2,1-0.5
				c0.3-0.2,0.7-0.5,1.1-1c0.5-0.5,0.8-1.1,0.9-1.6c0.3-0.9,0.4-1.8,0.3-2.6c0-0.8-0.3-1.6-0.8-2.6c-0.4-0.5-0.8-1-1.3-1.2
				c-0.6-0.3-1.2-0.5-1.8-0.5c-1,0-1.2,0.6-1.2,0.9c-0.1,0.6-0.1,1.1,0,1.7C70.1,5.4,70.2,5.7,70.2,6.1z M71.8,7.9
				c0-2.1,0-2.9,0.1-3.2c0.1,0,0.1,0,0.3,0.1c0.5,0.2,0.9,0.5,1.1,1c0.3,0.7,0.4,1.5,0.4,2.3c-0.1,0.9-0.4,1.6-1,2.1
				c-0.2,0.2-0.4,0.3-0.7,0.4C71.9,10.2,71.8,9.4,71.8,7.9z"/>
			<path class="st12" d="M82.6,23.3L82.6,23.3c0.7,0,1.3-0.3,1.8-0.8c0.3-0.3,0.6-0.8,0.9-1.5c0.3-0.8,0.6-1.8,0.7-3
				c0.1-0.4,0.2-1.5,0.3-3.4c0.1-2.2,0-4.4-0.3-6.4c-0.1-0.5-0.3-1.5-0.7-3c-0.3-0.9-0.6-1.6-1.1-2c-0.4-0.4-1-0.6-1.7-0.6
				c-0.7,0-1.3,0.2-1.7,0.7c-0.4,0.4-0.7,1-1,1.8c-0.2,0.7-0.4,1.7-0.5,3c0,0.4-0.1,1.8-0.1,4.1c0,0.7,0,1.8,0.1,3.4
				c0.1,2.1,0.3,3.4,0.4,4c0.3,1.2,0.6,2,0.8,2.4C81.1,22.8,81.8,23.3,82.6,23.3z M82.6,4.3V3.8l0,0L82.6,4.3c0.4,0,0.7,0.3,1.1,0.9
				c0,0.1,0.2,0.4,0.6,1.9c0.2,0.6,0.3,1.4,0.3,2.4c0.1,1.2,0.1,2.1,0.1,2.8c0,0.5,0,0.9,0,1.1c0,0.7-0.1,2-0.2,3.9
				c-0.1,1.1-0.3,2.1-0.7,3.1c-0.2,0.6-0.6,1.3-1.1,1.3c-0.1,0-0.5,0-0.8-0.7c0-0.1-0.1-0.4-0.5-2.1c-0.1-0.7-0.3-1.9-0.4-3.3
				c-0.1-0.9-0.1-2.4,0-4.6C81.1,4.8,82.2,4.3,82.6,4.3z"/>
			<path class="st12" d="M95.1,22.4c0-0.3,0-0.7-0.1-1.2c-1.1-5.3-1.7-8.5-1.7-9.3c0-0.1,0.1-0.8,0.8-4.2c0.4-1.9,0.7-3.1,0.8-3.5
				c0.1-0.3,0.1-0.6,0-0.9c-0.2-0.6-0.6-0.7-0.8-0.7c-0.3,0-0.6,0.1-0.9,0.6l-0.1,0.2c0,0.1,0,0.1-0.1,0.2l0.5,0.1l0,0l-0.5-0.1
				c0,0.2-0.5,3.1-0.7,4c-0.1,0.5-0.2,0.9-0.2,1.3C92.1,8.6,92.1,8,92,7.4c-0.7-4.5-1-4.6-1.3-4.7c-0.6-0.2-1.1,0.1-1.2,0.7
				c0,0.1-0.1,0.2,0.3,1.6c0.4,1.7,0.7,2.8,0.8,3.4c0.4,2.2,0.7,3.4,0.7,3.4c0,0.1,0,0.5-0.4,2.5c0,0.1-0.1,0.5-0.2,1.3
				c-0.1,0.7-0.2,1.3-0.3,1.9c-0.1,0.5-0.2,1.2-0.4,2c-0.1,0.8-0.2,1.1-0.2,1.2c-0.2,0.7-0.3,1.2-0.4,1.6c0,0.3,0.1,0.5,0.2,0.6
				c0.1,0.1,0.3,0.3,0.6,0.3l0.1,0c0.3,0,0.6-0.1,0.7-0.4c0.1-0.1,0.2-0.3,0.4-1.4l0,0c0,0,0-0.1,0-0.1h0l0,0c0-0.2,0.1-0.6,0.1-1.2
				c0.1-0.9,0.2-1.7,0.4-2.5c0.2-1.1,0.3-1.9,0.5-2.6c0.1,0.8,0.3,1.8,0.5,3.1c0.3,2.5,0.5,3.6,0.7,4.2h0c0,0.4,0.3,0.8,1,0.8
				C94.7,23.3,95.1,23.1,95.1,22.4z M93.8,22.5L93.8,22.5L93.8,22.5L93.8,22.5z"/>
			<path class="st12" d="M102.3,21.7c-0.8,0-1.3,0-1.4,0c0-0.1-0.1-0.5-0.1-1.3c0-0.4,0.1-3,0.2-7.7c0.1,0,0.2,0,0.3,0
				c0.2,0,0.6,0,1.3,0c0.2,0,0.4-0.1,0.6-0.3c0.2-0.3,0-0.7,0-0.8c-0.2-0.4-0.5-0.7-0.9-0.7l-0.8,0c-0.2,0-0.4,0-0.5,0
				c0-0.4-0.1-1.2-0.1-2.9l-0.1-3.8c0.2,0,0.5-0.1,1.1-0.1c1.5,0,2.1,0,2.3-0.5c0.1-0.2,0.1-0.4,0-0.6c-0.2-0.3-0.6-0.4-0.9-0.4
				c-0.1,0-0.4,0-0.6,0l-0.4,0c-0.4,0-1-0.1-2.1,0c-0.3,0-0.5,0.1-0.7,0.3c-0.3,0.4-0.4,1-0.4,1.9c0.1,1.6,0.2,5.5,0.2,11.7
				c0,0.4,0,1.3,0,2.6c0,1.2,0,1.8,0,2c0,1.7,0,1.7,0.1,1.8l0.1,0.1c0.2,0.2,0.6,0.2,1.6,0.1c0.6,0,1.1,0,1.6,0
				c1.3,0,1.7-0.1,1.9-0.3l0.1-0.2v-0.2C104.6,21.8,103.8,21.5,102.3,21.7z"/>
			<path class="st12" d="M66.2,47.9c0-0.7,0-1.3,0-1.9c0-0.2,0-0.4,0-0.6l0-0.3c0-0.4,0-1.5-0.8-1.5c-0.4,0-0.8,0.3-0.8,0.9
				c0.1,5.3,0.1,7,0,7.5c-0.1,0-0.4,0.1-0.9,0.1l-0.3,0c-0.7,0-1.1-0.1-1.3-0.1c-0.1-0.4-0.1-1.7,0.1-5.8c0-0.7,0-1.3,0-1.8
				c0-0.6-0.5-0.8-0.9-0.8c-0.3,0-0.7,0.3-0.8,0.9c-0.1,1.6-0.1,6.2,0,13.6c0,0.3,0,0.9,0,1.9c0,0.8,0,1.4,0,1.8
				c0,0.8,0,1.3,0.1,1.5l-0.1,0.1l0.1,0.3c0.1,0.4,0.5,0.6,0.9,0.6c0.3,0,0.8-0.2,0.8-0.9c0-2.8,0-4.4,0-4.8c0-0.7,0-1.8,0-3.3
				c0-0.9-0.1-1.4-0.1-1.6c0.2,0,0.7-0.1,1.7-0.1c0.3,0,0.6,0,0.7,0c0,0.6,0.1,2.8,0,9.7c0,1,0.7,1.1,0.9,1.1c0.3,0,0.6-0.2,0.8-0.4
				c0.1-0.2,0.2-0.4,0.2-0.7c0-2.8,0-5.1-0.1-6.9C66.3,52.5,66.2,49.7,66.2,47.9z"/>
			<path class="st12" d="M77.6,55.2c-0.1-0.7-0.2-1.5-0.3-2.5c-0.1-0.8-0.1-1.3-0.2-1.5c0-0.2-0.1-0.5-0.3-1.7
				c-0.2-1.2-0.3-1.9-0.4-2c-0.1-0.7-0.4-1.6-0.7-2.7c-0.3-0.8-0.6-1.2-1.1-1.2c-0.6,0-0.9,0.7-1.2,1.8c-0.1,0.4-0.2,0.8-0.3,1.1
				c-0.1,0.3-0.2,0.8-0.3,1.5c-0.4,2.8-0.7,4.3-0.7,4.7c-0.2,0.8-0.3,2.1-0.5,3.8c-0.2,1.8-0.4,2.8-0.4,3.2
				c-0.6,3.5-0.5,3.7-0.4,3.9c0.2,0.4,0.6,0.6,1.1,0.6c0.2,0,0.6-0.1,0.7-0.9c0,0,0-0.2,0-0.5c0-0.2,0-0.4,0-0.5
				c0-0.6,0.2-1.5,0.4-2.7c0.1-0.5,0.2-0.6,0.2-0.6h0c0.5-0.3,1.2-0.3,2-0.2c0.6,0.1,0.9,0.2,1,0.2c0.3,1.4,0.4,2.9,0.2,4.3
				c0,0.2,0,0.4,0.2,0.6c0.2,0.2,0.4,0.3,0.7,0.3c0.1,0,0.1,0,0.2,0c0.3,0,0.6-0.2,0.8-0.5c0.1-0.2,0.2-0.4,0.2-0.6l0-0.3
				C78.1,60.4,77.9,57.8,77.6,55.2z M76,57.2c-0.2,0-0.8,0.1-1.9,0.1c-0.3,0-0.6,0-0.9,0c0-0.1,0-0.3,0.1-0.5c0-0.2,0.1-0.9,0.3-2
				c0.2-1.1,0.3-2,0.4-2.7c0.1-0.6,0.3-1.4,0.5-2.4c0.2-0.9,0.3-1.5,0.3-1.6c0.1-0.4,0.1-0.7,0.2-1c0.1,0.6,0.3,1.7,0.6,3.3
				C75.8,53.2,76,55.5,76,57.2z"/>
			<path class="st12" d="M91.6,61.9c-0.3-0.8-0.5-1.3-0.9-1.6c-0.2-0.1-0.4-0.2-0.6-0.2c0-0.6,0-1.7,0-3.2c0-3.2,0-4.9,0-5.1l0-3.4
				c0.1-3.2-0.2-4-0.6-4.3c-0.2-0.3-0.7-0.4-2.5-0.4c-2.4,0-2.8,0.3-3,0.5c-0.2,0.2-0.4,0.4-0.3,4.3l0,3.4c0,0.2,0,1.9,0,5.1
				c-0.1,1.5-0.1,2.5,0,3.2c-0.2,0-0.4,0.1-0.5,0.2c-0.4,0.3-0.7,0.8-0.9,1.6c-0.1,0.3-0.2,0.6-0.2,0.8l-0.1,0l-0.1,0.5
				c0,0.2-0.1,0.6,0.1,0.9c0.3,0.4,0.9,0.3,1.1,0.2c0.4-0.2,0.5-0.7,0.5-0.8c0-0.2,0.1-0.5,0.2-0.8c0.1-0.4,0.2-0.6,0.2-0.7
				c0,0,0.2-0.1,0.8-0.1h0.4c0.1,0,0.4,0,1,0c1.1,0,1.5,0,1.7,0c0.1,0,0.2,0,0.3,0c0.2,0,0.3,0,0.4,0H89c0.7,0,0.9,0.1,0.9,0.1
				c0.1,0.1,0.2,0.3,0.3,0.7c0.1,0.3,0.1,0.6,0.2,0.8c0,0.2,0.1,0.6,0.4,0.8c0.2,0.1,0.4,0.1,0.6,0.1c0.2,0,0.4-0.1,0.5-0.2
				c0.2-0.3,0.2-0.6,0.1-0.9C91.9,62.8,91.8,62.3,91.6,61.9z M88.3,56.2c0,0.3,0,0.9,0,1.9l0,1.9h-0.8c-0.1,0-0.5,0-1.3,0
				c-0.4,0-0.7,0-0.9,0c0-0.6,0-1.9,0.1-3.8c0-0.8,0-2,0-3.7l0-1.6c0-1.5,0-2.4,0-2.9c0-1.7,0.1-2.3,0.1-2.6c0.1,0,0.5-0.1,1.3-0.1
				c0.1,0,0.3,0,0.4,0c0.1,0,0.1,0,0.3,0h0.3c0.1,0,0.2,0,0.3,0c0,0,0,0,0.1,0c0,0.2,0.1,0.8,0.2,2.6c0,0.5,0,1.5,0,2.9l0,1.6
				C88.3,54.2,88.3,55.5,88.3,56.2z"/>
			<path class="st12" d="M101.8,46.2c-0.3-0.9-0.6-1.6-1.1-2c-0.4-0.4-1-0.6-1.7-0.6c-0.7,0-1.3,0.2-1.7,0.7c-0.4,0.4-0.7,1-1,1.8
				c-0.2,0.7-0.4,1.7-0.5,3c0,0.4-0.1,1.8-0.1,4.1c0,0.7,0,1.8,0.1,3.4c0.1,2.1,0.3,3.4,0.4,4c0.3,1.2,0.6,2,0.8,2.4
				c0.5,0.8,1.2,1.2,2,1.3l0.1,0c0.6,0,1.2-0.3,1.8-0.8c0.3-0.3,0.6-0.8,0.9-1.5c0.3-0.8,0.6-1.8,0.7-3c0.1-0.4,0.2-1.5,0.3-3.4
				c0.1-2.2,0-4.4-0.3-6.4C102.5,48.7,102.2,47.7,101.8,46.2z M99.1,62.5c-0.1,0-0.5,0-0.8-0.7c0-0.1-0.1-0.4-0.5-2.1
				c-0.1-0.7-0.3-1.9-0.4-3.3c-0.1-0.9-0.1-2.4,0-4.6c0.2-6.1,1.3-6.5,1.6-6.5v-0.5l0,0l0,0.5c0.4,0,0.7,0.3,1,0.9
				c0,0.1,0.2,0.4,0.6,1.9c0.2,0.6,0.3,1.4,0.3,2.4c0.1,1.2,0.1,2.1,0.1,2.8c0,0.5,0,0.9,0,1.1c0,0.7-0.1,2-0.2,3.9
				c-0.1,1.1-0.3,2.1-0.7,3.1C100,61.8,99.6,62.5,99.1,62.5z"/>
		</g>
		<g>
			<g>
				<path class="st11" d="M63.4,28.9c-0.2,0-0.4,0.1-0.5,0.5c0,0.2-0.1,0.6-0.3,1.9c0,0.2-0.1,0.4-0.1,0.5c0-0.2-0.1-0.4-0.1-0.6
					C62.1,29,62,29,61.8,28.9c-0.2-0.1-0.3,0-0.4,0c-0.1,0-0.2,0.1-0.2,0.3c0,0.1,0,0.2,0.1,0.9c0.2,0.8,0.3,1.2,0.4,1.4l0,0
					c0.3,1.4,0.3,1.9,0.3,2.1c0,1,0,1.9,0,2.6c0,0.3,0,0.7,0,1.2l0,0.6c0,0.3,0.2,0.5,0.5,0.5c0.2,0,0.4-0.1,0.4-0.4
					c0,0,0-0.4,0-1.1c0-0.7,0-1.2,0-1.3c0-1.5,0-2,0-2.1c0-0.1,0.1-0.4,0.2-0.8c0.1-0.5,0.2-0.9,0.3-1.1c0-0.2,0.1-0.6,0.2-1.1
					c0.1-0.5,0.2-0.8,0.2-0.9c0-0.3,0-0.5-0.1-0.6C63.7,28.9,63.5,28.9,63.4,28.9z"/>
				<path class="st11" d="M74,28.9c-0.4,0.1-0.7,0.4-0.9,0.8c-0.3,0.7-0.5,1.7-0.5,3c0,0.2,0,0.4,0,0.4c0,0-0.1,0-0.1,0
					c0,0-0.1,0-0.1,0c0-0.2,0-0.8,0-2.2c0-0.3,0-0.7,0-1.2l0-0.1c0-0.1,0-0.2,0-0.3c0-0.4-0.3-0.4-0.4-0.5l-0.2,0l-0.1,0.1
					c-0.1,0.1-0.2,0.3-0.2,0.7c0,0,0,0.1,0,0.3c0,0.2,0,0.4,0,0.5l0,1.1c0,0.9,0,1.3,0,1.4c0,0-0.1,0-0.1,0c0,0,0,0-0.1,0
					c0-0.1,0-0.3,0-0.5c0-1.2-0.2-2.2-0.5-3c-0.2-0.5-0.5-0.7-0.9-0.8c-0.2,0-0.7-0.1-0.9,0.2c-0.1,0.1-0.1,0.2-0.1,0.3
					c0,0.1,0.1,0.2,0.2,0.2c0.1,0.1,0.3,0.1,0.5,0.1c0,0,0.2,0,0.3,0.2c0.1,0.1,0.1,0.2,0.2,0.4c0.2,0.5,0.3,0.9,0.3,1.2
					c0,0.4,0,1,0,2c0,0.2,0,0.5,0,0.9c0,0.6-0.1,1-0.1,1.3c0,0.8-0.1,1.3-0.4,1.7c0,0.1-0.2,0.2-0.5,0.5c-0.2,0.1-0.3,0.2-0.3,0.2
					l-0.1,0.1l0.1,0.1c0.1,0.2,0.3,0.2,0.4,0.2c0,0,0,0,0.1,0c0.2,0,0.4-0.1,0.6-0.2c0.3-0.2,0.5-0.4,0.6-0.7
					c0.2-0.4,0.3-1.1,0.3-2.3c0-0.8,0-1.2,0.1-1.4c0,0,0.1,0,0.1,0c0,0,0.1,0,0.1,0c0,0.2,0,0.7,0,1.7c0,0.1,0,0.2,0,0.4
					c0,0.2,0,0.4,0,0.4c0,0.3,0,0.7,0,1.1c0,0.2,0,0.4,0,0.4c0,0.4,0.3,0.5,0.4,0.5c0.2,0,0.3-0.1,0.4-0.3c0,0,0-0.1,0-0.3
					c0-0.1,0-0.4,0-1c0-2,0-2.8,0-3c0.1,0,0.2,0,0.3,0c0,0.2,0,0.6,0,1.5c0.1,1.2,0.2,1.9,0.4,2.3c0.1,0.3,0.4,0.5,0.6,0.7
					c0.2,0.1,0.5,0.2,0.7,0.2c0.1,0,0.3,0,0.3-0.2l0.1-0.2L74.7,38c0-0.1-0.1-0.1-0.3-0.2c-0.4-0.2-0.5-0.4-0.6-0.5
					c-0.2-0.3-0.3-0.9-0.3-1.6c0-0.3,0-0.7-0.1-1.3c0-0.4,0-0.7,0-0.9c0-0.9,0-1.6,0-2c0-0.3,0.1-0.8,0.3-1.2c0-0.1,0.1-0.2,0.2-0.3
					c0.2-0.2,0.3-0.2,0.3-0.2c0.2,0,0.4,0,0.5-0.1c0.1-0.1,0.2-0.2,0.2-0.2c0-0.1,0-0.2-0.1-0.3C74.7,28.8,74.2,28.9,74,28.9z"/>
				<path class="st11" d="M81.8,37.7c-0.4,0-0.6,0-0.6,0c0-0.1,0-0.2,0-0.6c0-0.2,0-1.4,0.1-3.6c0,0,0.1,0,0.1,0c0,0,0.2,0,0.6,0
					c0.2,0,0.3-0.1,0.3-0.1c0.1-0.2,0-0.3,0-0.4c-0.1-0.2-0.2-0.3-0.4-0.3c-0.3,0-0.4,0-0.6,0c0-0.2,0-0.6-0.1-1.3l0-1.8
					c0.1,0,0.2,0,0.5,0c0.8,0,1,0,1.1-0.2c0-0.1,0-0.2,0-0.3c-0.1-0.2-0.3-0.2-0.4-0.2c-0.1,0-0.2,0-0.3,0l-0.2,0c-0.2,0-0.5,0-1,0
					c-0.1,0-0.3,0.1-0.4,0.2c-0.2,0.2-0.2,0.5-0.2,0.9c0.1,0.7,0.1,2.6,0.1,5.5c0,0.2,0,0.6,0,1.2c0,0.5,0,0.9,0,1
					c0,0.8,0,0.8,0.1,0.9l0.1,0.1c0.1,0.1,0.1,0.1,0.8,0.1c0.3,0,0.5,0,0.7,0c0.7,0,0.8-0.1,0.9-0.2l0.1-0.1v-0.1
					c0-0.1,0-0.2-0.1-0.3C82.6,37.7,82.4,37.7,81.8,37.7z"/>
				<path class="st11" d="M92.4,30.9c0-0.3,0-0.6,0-0.9c0-0.1,0-0.1,0-0.2l0,0v-0.3c0-0.2,0-0.7-0.4-0.7c-0.2,0-0.4,0.1-0.4,0.4
					c0,2.4,0,3.2,0,3.5c-0.1,0-0.2,0-0.5,0c-0.3,0-0.5,0-0.6,0c0-0.2,0-0.8,0-2.7c0-0.3,0-0.6,0-0.8c0-0.2-0.1-0.2-0.1-0.3
					c-0.1,0-0.1-0.1-0.3-0.1c-0.2,0-0.4,0.1-0.4,0.4c0,0.8,0,2.9,0,6.3c0,0.1,0,0.4,0,0.9c0,0.4,0,0.7,0,0.8c0,0.3,0,0.5,0,0.6
					l-0.1,0l0.1,0.3c0.1,0.2,0.2,0.3,0.4,0.3c0.2,0,0.4-0.1,0.4-0.4c0-1.3,0-2.1,0-2.3c0-0.3,0-0.9,0-1.5c0-0.4,0-0.7,0-0.8
					c0.1,0,0.3,0,0.8,0c0.1,0,0.2,0,0.3,0c0,0.3,0,1.4,0,4.5c0,0.5,0.3,0.5,0.4,0.5c0.2,0,0.3-0.1,0.4-0.2c0.1-0.1,0.1-0.2,0.1-0.3
					c0-1.3,0-2.4,0-3.2C92.4,33,92.4,31.7,92.4,30.9z"/>
				<path class="st11" d="M101.9,37.9c-0.2-0.2-0.5-0.2-1-0.2c-0.4,0-0.6,0-0.6,0c0-0.1,0-0.2,0-0.6c0-0.2,0-1.4,0.1-3.6
					c0,0,0.1,0,0.1,0c0,0,0.2,0,0.6,0c0.2,0,0.3-0.1,0.3-0.1c0.1-0.2,0-0.3,0-0.4c-0.1-0.2-0.2-0.3-0.4-0.3c-0.3,0-0.4,0-0.6,0
					c0-0.2,0-0.6-0.1-1.3l0-1.8c0.1,0,0.2,0,0.5,0c0.8,0,1,0,1.1-0.2c0-0.1,0-0.2,0-0.3c-0.1-0.2-0.3-0.2-0.4-0.2
					c-0.1,0-0.2,0-0.3,0l-0.2,0c-0.2,0-0.5,0-1,0c-0.1,0-0.3,0.1-0.4,0.2c-0.2,0.2-0.2,0.5-0.2,0.9c0.1,0.7,0.1,2.6,0.1,5.5
					c0,0.2,0,0.6,0,1.2c0,0.5,0,0.9,0,1c0,0.8,0,0.8,0.1,0.9l0.1,0.1c0.1,0.1,0.1,0.1,0.8,0.1c0.3,0,0.5,0,0.7,0
					c0.7,0,0.8-0.1,0.9-0.2l0.1-0.1v-0.1C102,38.1,102,37.9,101.9,37.9z"/>
			</g>
		</g>
	</g>
</g>
<g id="help">
</g>
<g id="img_x5F_content">
</g>
<g id="Layer_7">
</g>
</svg>
