<?xml version="1.0" encoding="utf-8"?>
<!-- Generator: Adobe Illustrator 20.1.0, SVG Export Plug-In . SVG Version: 6.00 Build 0)  -->
<svg version="1.1" xmlns="http://www.w3.org/2000/svg" xmlns:xlink="http://www.w3.org/1999/xlink" x="0px" y="0px"
	 viewBox="0 0 39 39" style="enable-background:new 0 0 39 39;" xml:space="preserve">
<style type="text/css">
	.st0{opacity:0.45;}
	.st1{fill:none;stroke:#BCA3A0;stroke-width:2;stroke-linecap:round;stroke-miterlimit:10;}
	.st2{fill:none;stroke:#968392;stroke-width:2;stroke-miterlimit:10;}
	.st3{fill:none;stroke:#7F7F7F;stroke-miterlimit:10;}
	.st4{fill:none;stroke:#EBCD4D;stroke-miterlimit:10;}
	.st5{fill:#666666;}
	.st6{fill:#E6E6E6;}
	.st7{fill:#7D91AA;}
	.st8{fill:#8FA5C5;}
	.st9{fill:#7F7F7F;stroke:#7F7F7F;stroke-miterlimit:10;}
	.st10{fill:#7F7F7F;}
	.st11{fill:#EBCD4D;}
	.st12{fill:#4D4D4D;}
	.st13{fill:none;stroke:#4D4D4D;stroke-miterlimit:10;}
	.st14{fill:none;stroke:#4D4D4D;stroke-linecap:round;stroke-linejoin:round;stroke-miterlimit:10;}
	.st15{fill:#424242;}
	.st16{fill:none;stroke:#B3B3B3;stroke-miterlimit:10;}
	.st17{fill:none;stroke:#EBCD4D;stroke-width:2;stroke-miterlimit:10;}
	.st18{fill:#B3B3B3;}
	.st19{fill:none;stroke:#B3B3B3;stroke-width:2;stroke-miterlimit:10;}
	.st20{fill:#F2F2F2;stroke:#EBCD4D;stroke-width:2;stroke-miterlimit:10;}
	.st21{fill:#F2F2F2;}
	.st22{fill:none;stroke:#7F7F7F;stroke-width:1.1121;stroke-miterlimit:10;}
	.st23{fill:#EBCD4D;stroke:#7F7F7F;stroke-width:1.1121;stroke-miterlimit:10;}
	.st24{fill:none;stroke:#EBCD4D;stroke-width:1.1121;stroke-miterlimit:10;}
	.st25{fill:none;stroke:#7F7F7F;stroke-width:2;stroke-miterlimit:10;}
	.st26{fill:#F2F2F2;stroke:#7F7F7F;stroke-width:1.1121;stroke-miterlimit:10;}
	.st27{fill:none;stroke:#CCCCCC;stroke-miterlimit:10;}
	.st28{fill:none;stroke:#333333;stroke-linecap:round;stroke-linejoin:round;stroke-miterlimit:10;}
	.st29{fill:none;stroke:#CCCCCC;stroke-width:1.6085;stroke-miterlimit:10;}
	.st30{fill:none;stroke:#8FA5C5;stroke-miterlimit:10;}
	.st31{fill:#999999;}
	.st32{fill:#BD2F2F;}
	.st33{fill:#F2F2F2;stroke:#333333;stroke-miterlimit:10;}
	.st34{stroke:#FFFFFF;stroke-width:0.2;stroke-miterlimit:10;}
	.st35{fill:#1A1A1A;}
	.st36{opacity:0.54;fill:#333333;}
</style>
<g id="img">
</g>
<g id="Layer_3">
</g>
<g id="main">
	<g id="add">
	</g>
	<path class="st32" d="M19.5,0C8.7,0,0,8.7,0,19.5S8.7,39,19.5,39S39,30.3,39,19.5S30.3,0,19.5,0z M25.5,23.5c0,0-2.2,0.5-1.8,3.4
		c0,0,0.3,0.1,0.4,0.2c0.4,0.6,1.4,2.5,1.5,4.6c0,0-5.8,1.8-12.3,0.5c0,0,1.5-2.4,2.8-3.4c0,0,0.2-0.1,0.1-0.6c0,0-2.2-0.2-3.4-1.2
		c-0.7-0.6-0.5-1.4-0.6-1.8c-0.2-0.3-0.9-0.5-0.6-0.9c-0.2,0-0.7-0.1-0.7-0.5c-0.1-0.4,0-1,0-1.2c0,0-1.2-0.3-1-1
		c0.2-0.7,1.1-1.2,1.1-2.3c0-1.2-0.5-0.9-0.7-2c-0.5-2.8,0.1-4.8,0.8-6.1c0,0,0,0-0.1,0c-0.1,0-0.3-0.1-0.4-0.2
		c-0.4-0.1-0.8-0.5-0.8-0.9c0-0.1,0-0.2,0-0.2c0,0.2,0.3,0.5,0.3,0.5s0,0,0.1,0.1c0.2,0.2,0.6,0.3,0.9,0.4c0.1,0,0.1,0,0.2,0
		c0.1-0.1,0.1-0.2,0.2-0.3c-0.1,0-0.3-0.1-0.4-0.2c-0.6-0.4-0.8-1.1-0.4-1.7c0.1,0.7,0.7,1.2,1.4,1.1c0,0,0.1,0,0.1,0
		c0.1-0.1,0.2-0.2,0.3-0.3c0,0,0,0,0,0C13,9.1,13.1,9,13.1,9c1.2-0.8,3.7-2.3,7.2-2.5c3.4-0.2,4.4,0.4,5.5,1.7c0,0,2.6,1.3,3.1,4.5
		C29.5,16.4,28,22.6,25.5,23.5z"/>
</g>
<g id="help">
</g>
<g id="img_x5F_content">
</g>
<g id="Layer_7">
</g>
</svg>
