<?xml version="1.0" encoding="utf-8"?>
<!-- Generator: Adobe Illustrator 17.0.1, SVG Export Plug-In . SVG Version: 6.00 Build 0)  -->
<!DOCTYPE svg PUBLIC "-//W3C//DTD SVG 1.1//EN" "http://www.w3.org/Graphics/SVG/1.1/DTD/svg11.dtd">
<svg version="1.1" xmlns="http://www.w3.org/2000/svg" xmlns:xlink="http://www.w3.org/1999/xlink" x="0px" y="0px" width="290.9px"
	 height="381.4px" viewBox="0 0 290.9 381.4" enable-background="new 0 0 290.9 381.4" xml:space="preserve">
<g id="img" display="none">
</g>
<g id="Layer_3">
</g>
<g id="main">
	<path fill="none" stroke="#798DA5" stroke-miterlimit="10" d="M60.1,381.1c8.6-12.1,22.7-30.5,35.3-39.7c0,0,2.7-2.2,1.2-8.8
		c0,0-33.7-3.6-51.1-18.7c-11.2-9.7-7.7-21.8-9.2-27c-3.2-4.1-13.1-8.3-9-13.6c-2.9-0.5-10.2-1.7-11.4-7.1c-1.2-5.3,0.5-15.6,0.5-19
		c0,0-18.2-4.6-15.6-15.6c2.7-10.9,17.3-18,17-35.8c-0.2-17.8-7.2-13.2-10.7-31c-8.3-42,0.8-72.6,12.5-93c-0.3-0.1-0.6-0.2-0.9-0.3
		c-2.2-0.8-4.2-1.8-5.9-3C6.1,66.4,1.3,61.4,0.6,55.1c-0.1-1.3-0.1-2.5,0.1-3.8c0.6,2.8,4,7.5,4,7.5s0.2-0.6,2,1.9
		c3.6,3,8.6,5,14.1,5.3c0.8,0,1.6,0.1,2.4,0c1-1.5,2-3,3-4.4c-2.1-0.4-4.2-1.2-6.1-2.3C10.9,54,7.9,42.1,13.3,32.9
		c1.3,10.7,11,18.3,21.6,17c0.5-0.1,1-0.2,1.6-0.3c1.9-2,3.7-3.6,5.3-5c0.1-0.1,0.2-0.2,0.3-0.2c3.7-3.2,6.1-4.8,6.1-4.8
		c18.7-12.4,57-35.3,109.5-38.4c52.5-3.2,66.9,6.3,83.4,25.8c0,0,40.1,20.4,47.4,68.4c8.9,58.3-13.9,152.7-51.3,166.1
		c0,0-33.3,7.8-28,51.1c0,0,5.2,1.4,6.3,3.2c5.8,8.6,19.3,35.6,22.9,65.5"/>
</g>
<g id="help" display="none">
</g>
<g id="img_x5F_content">
</g>
</svg>
