<?xml version="1.0" encoding="utf-8"?>
<!-- Generator: Adobe Illustrator 17.0.1, SVG Export Plug-In . SVG Version: 6.00 Build 0)  -->
<!DOCTYPE svg PUBLIC "-//W3C//DTD SVG 1.1//EN" "http://www.w3.org/Graphics/SVG/1.1/DTD/svg11.dtd">
<svg version="1.1" xmlns="http://www.w3.org/2000/svg" xmlns:xlink="http://www.w3.org/1999/xlink" x="0px" y="0px" width="51.6px"
	 height="8.9px" viewBox="0 0 51.6 8.9" style="enable-background:new 0 0 51.6 8.9;" xml:space="preserve">
<symbol  id="Price" viewBox="-44.9 -37.3 88.6 46.1">
	<text transform="matrix(1 0 0 -1 -44.9404 -33.6738)"><tspan x="0" y="0" style="fill:#EBCD4D; font-family:'Neris-SemiBold'; font-size:16;">о</tspan><tspan x="8.6" y="0" style="fill:#EBCD4D; font-family:'Neris-SemiBold'; font-size:16;">т 14 </tspan><tspan x="38.8" y="0" style="fill:#EBCD4D; font-family:'Neris-SemiBold'; font-size:16;">5</tspan><tspan x="48.2" y="0" style="fill:#EBCD4D; font-family:'Neris-SemiBold'; font-size:16;">21</tspan><tspan x="63.2" y="0" style="fill:#E8DCAA; font-family:'Neris-Thin'; font-size:13;">R</tspan><tspan x="71.7" y="0" style="fill:#E8DCAA; font-family:'Neris-Thin'; font-size:13;">UB</tspan></text>
	<line style="fill:none;stroke:#CCCCCC;stroke-miterlimit:10;" x1="16" y1="-6.4" x2="-17.2" y2="-6.4"/>
	<polygon style="fill:#8FA5C5;" points="-21.4,8.9 -20.1,6.2 -17.2,5.8 -19.3,3.7 -18.8,0.8 -21.4,2.2 -24,0.8 -23.5,3.7 -25.7,5.8 
		-22.7,6.2 	"/>
	<polygon style="fill:#8FA5C5;" points="-11,8.9 -9.7,6.2 -6.8,5.8 -8.9,3.7 -8.4,0.8 -11,2.2 -13.6,0.8 -13.1,3.7 -15.3,5.8 
		-12.3,6.2 	"/>
	<polygon style="fill:#8FA5C5;" points="-0.6,8.9 0.7,6.2 3.6,5.8 1.5,3.7 2,0.8 -0.6,2.2 -3.2,0.8 -2.7,3.7 -4.9,5.8 -1.9,6.2 	"/>
	<polygon style="fill:#8FA5C5;" points="9.8,8.9 11.1,6.2 14,5.8 11.9,3.7 12.4,0.8 9.8,2.2 7.2,0.8 7.7,3.7 5.6,5.8 8.5,6.2 	"/>
	<polygon style="fill:#8FA5C5;" points="20.2,8.9 21.5,6.2 24.4,5.8 22.3,3.7 22.8,0.8 20.2,2.2 17.6,0.8 18.1,3.7 16,5.8 18.9,6.2 
			"/>
</symbol>
<g id="img">
</g>
<g id="Layer_3">
</g>
<g id="main">
	<g>
		
			<use xlink:href="#Price"  width="88.6" height="46.1" id="XMLID_61_" x="-44.9" y="-37.3" transform="matrix(1 0 0 -1 26.5997 9.6464)" style="overflow:visible;"/>
	</g>
</g>
<g id="help" style="display:none;">
</g>
<g id="img_x5F_content">
</g>
</svg>
