<svg version="1.1" xmlns="http://www.w3.org/2000/svg" xmlns:xlink="http://www.w3.org/1999/xlink" x="0px" y="0px"
	 viewBox="0 0 34.6 34.8" style="enable-background:new 0 0 34.6 34.8;" xml:space="preserve">
<style type="text/css">
	.st0{display:none;}
	.st1{display:inline;}
	.st2{fill:#EBCD4D;}
	.st3{fill:none;stroke:#CCCCCC;stroke-linecap:round;stroke-linejoin:round;stroke-miterlimit:10;}
	.st4{fill:none;stroke:#EBCD4D;stroke-miterlimit:10;}
	.st5{fill:none;stroke:#EBCD4D;stroke-linecap:round;stroke-linejoin:round;stroke-miterlimit:10;}
	.st6{fill:none;stroke:#333333;stroke-linecap:round;stroke-linejoin:round;stroke-miterlimit:10;}
	.st7{opacity:0.6;}
	.st8{fill:none;stroke:#BCA3A0;stroke-width:2;stroke-linecap:round;stroke-miterlimit:10;}
	.st9{fill:none;stroke:#968392;stroke-width:2;stroke-miterlimit:10;}
	.st10{fill:#8FA5C5;}
	.st11{fill:none;stroke:#7F7F7F;stroke-miterlimit:10;}
	.st12{fill:#666666;}
	.st13{fill:#E6E6E6;}
	.st14{fill:#4D4D4D;}
	.st15{fill:#333333;}
	.st16{fill:none;stroke:#D6BBBA;stroke-miterlimit:10;}
	.st17{fill:none;stroke:#333333;stroke-miterlimit:10;}
	.st18{fill:none;stroke:#000000;stroke-miterlimit:10;}
	.st19{fill:none;stroke:#000000;stroke-linecap:round;stroke-linejoin:round;stroke-miterlimit:10;}
	.st20{fill:#7D91AA;}
	.st21{fill:#7F7F7F;stroke:#7F7F7F;stroke-miterlimit:10;}
	.st22{fill:#7F7F7F;}
	.st23{fill:#FFFFFF;}
	.st24{fill:none;stroke:#7D91AA;stroke-miterlimit:10;}
	.st25{fill:none;stroke:#4D4D4D;stroke-linecap:round;stroke-linejoin:round;stroke-miterlimit:10;}
	.st26{fill:none;stroke:#4D4D4D;stroke-miterlimit:10;}
	.st27{opacity:0.6;clip-path:url(#SVGID_6_);}
	.st28{fill:#B3B3B3;}
	.st29{opacity:0.6;clip-path:url(#SVGID_8_);}
	.st30{opacity:0.6;clip-path:url(#SVGID_10_);}
	.st31{fill:#DBBF49;}
	.st32{fill:#C6AD44;}
	.st33{fill:#9E8A38;}
	.st34{fill:#726429;}
	.st35{fill:#7F702E;}
	.st36{fill:#CCCCCC;}
	.st37{opacity:0.6;clip-path:url(#SVGID_12_);}
	.st38{fill:#424242;}
	.st39{display:inline;fill:#1A1A1A;}
	.st40{display:inline;fill:#E6E6E6;}
</style>
<g id="img" class="st0">
</g>
<g id="Layer_3">
</g>
<g id="main">
	<g>
		<g>
			<path class="st2" d="M34.6,31.8c0,1.6-1.3,3-3,3H3c-1.6,0-3-1.4-3-3V3c0-1.6,1.3-3,3-3h28.6c1.7,0,3,1.4,3,3V31.8z"/>
		</g>
		<path class="st38" d="M17.3,10.3c-5.1,0-9.2,3.2-9.2,7.1c0,2.8,2,5.2,5,6.4c2.2,0.9,1.5,2.4,1.5,2.4s1-1.6,2.7-1.6
			c5.1,0,9.2-3.2,9.2-7.1S22.4,10.3,17.3,10.3L17.3,10.3z"/>
	</g>
</g>
<g id="help" class="st0">
</g>
<g id="img_x5F_content">
</g>
</svg>
