<?xml version="1.0" encoding="utf-8"?>
<!-- Generator: Adobe Illustrator 20.1.0, SVG Export Plug-In . SVG Version: 6.00 Build 0)  -->
<svg version="1.1" xmlns="http://www.w3.org/2000/svg" xmlns:xlink="http://www.w3.org/1999/xlink" x="0px" y="0px"
	 viewBox="0 0 80.2 49.2" style="enable-background:new 0 0 80.2 49.2;" xml:space="preserve">
<style type="text/css">
	.st0{opacity:0.45;}
	.st1{fill:none;stroke:#BCA3A0;stroke-width:2;stroke-linecap:round;stroke-miterlimit:10;}
	.st2{fill:none;stroke:#968392;stroke-width:2;stroke-miterlimit:10;}
	.st3{fill:none;stroke:#7F7F7F;stroke-miterlimit:10;}
	.st4{fill:none;stroke:#EBCD4D;stroke-miterlimit:10;}
	.st5{fill:#666666;}
	.st6{fill:#E6E6E6;}
	.st7{fill:#7D91AA;}
	.st8{fill:#8FA5C5;}
	.st9{fill:#7F7F7F;stroke:#7F7F7F;stroke-miterlimit:10;}
	.st10{fill:#7F7F7F;}
	.st11{fill:#EBCD4D;}
	.st12{fill:#4D4D4D;}
	.st13{fill:none;stroke:#4D4D4D;stroke-miterlimit:10;}
	.st14{fill:none;stroke:#4D4D4D;stroke-linecap:round;stroke-linejoin:round;stroke-miterlimit:10;}
	.st15{fill:#424242;}
	.st16{fill:none;stroke:#B3B3B3;stroke-miterlimit:10;}
	.st17{fill:none;stroke:#EBCD4D;stroke-width:2;stroke-miterlimit:10;}
	.st18{fill:#B3B3B3;}
	.st19{fill:none;stroke:#B3B3B3;stroke-width:2;stroke-miterlimit:10;}
	.st20{fill:#F2F2F2;stroke:#EBCD4D;stroke-width:2;stroke-miterlimit:10;}
	.st21{fill:#F2F2F2;}
	.st22{fill:none;stroke:#7F7F7F;stroke-width:1.1121;stroke-miterlimit:10;}
	.st23{fill:#EBCD4D;stroke:#7F7F7F;stroke-width:1.1121;stroke-miterlimit:10;}
	.st24{fill:none;stroke:#EBCD4D;stroke-width:1.1121;stroke-miterlimit:10;}
	.st25{fill:none;stroke:#7F7F7F;stroke-width:2;stroke-miterlimit:10;}
	.st26{fill:#F2F2F2;stroke:#7F7F7F;stroke-width:1.1121;stroke-miterlimit:10;}
	.st27{fill:none;stroke:#CCCCCC;stroke-miterlimit:10;}
	.st28{fill:none;stroke:#333333;stroke-linecap:round;stroke-linejoin:round;stroke-miterlimit:10;}
	.st29{fill:none;stroke:#CCCCCC;stroke-width:1.6085;stroke-miterlimit:10;}
	.st30{fill:none;stroke:#8FA5C5;stroke-miterlimit:10;}
	.st31{fill:#999999;}
	.st32{fill:#BD2F2F;}
	.st33{fill:#F2F2F2;stroke:#333333;stroke-miterlimit:10;}
	.st34{stroke:#FFFFFF;stroke-width:0.2;stroke-miterlimit:10;}
	.st35{fill:#1A1A1A;}
	.st36{opacity:0.54;fill:#333333;}
</style>
<g id="img">
</g>
<g id="Layer_3">
</g>
<g id="main">
	<g id="add">
	</g>
	<g>
		<path class="st18" d="M25.7,38.4c0,0,0.6,0.2,0.8,0.4c0.7,1.1,2.5,4.7,2.9,8.6c0,0-10.9,3.4-23,0.9c0,0,2.9-4.5,5.3-6.3
			c0,0,0.3-0.3,0.1-1.1c0,0-4.1-0.4-6.3-2.3c-1.4-1.2-0.9-2.7-1.1-3.3c-0.4-0.5-1.6-1-1.1-1.7c-0.4-0.1-1.3-0.2-1.4-0.9
			c-0.1-0.7,0.1-1.9,0.1-2.3c0,0-2.2-0.6-1.9-1.9c0.3-1.3,2.1-2.2,2.1-4.4c0-2.2-0.9-1.6-1.3-3.8c-1-5.2,0.1-8.9,1.5-11.4
			c0,0-0.1,0-0.1,0C2,8.7,1.7,8.5,1.5,8.4C0.7,8.1,0.1,7.5,0,6.7c0-0.2,0-0.3,0-0.5c0.1,0.3,0.5,0.9,0.5,0.9s0-0.1,0.2,0.2
			C1.2,7.8,1.8,8,2.5,8.1c0.1,0,0.2,0,0.3,0C2.9,7.9,3,7.7,3.2,7.5C2.9,7.5,2.6,7.4,2.4,7.3C1.3,6.6,0.9,5.1,1.6,4
			c0.2,1.3,1.4,2.2,2.7,2.1c0.1,0,0.1,0,0.2,0c0.2-0.2,0.5-0.4,0.6-0.6c0,0,0,0,0,0C5.6,5,5.9,4.8,5.9,4.8c2.3-1.5,7-4.3,13.5-4.7
			c6.5-0.4,8.2,0.8,10.3,3.2c0,0,4.9,2.5,5.8,8.4c1.1,7.2-1.7,18.8-6.3,20.4C29.1,32.1,25,33,25.7,38.4z"/>
		<g>
			<path class="st18" d="M50.2,22.3c-0.5-1-0.9-1.9-1.2-2.6c-0.9-2.4-1.2-3.2-1.2-3.5c0.2-0.4,0.7-1.3,1.7-3.5
				c0-0.1,0.2-0.3,0.3-0.6c0.2-0.4,0.4-0.6,0.4-0.7c0-0.1,0.2-0.3,0.3-0.6c0.3-0.4,0.3-0.6,0.3-0.8c0-0.4-0.3-0.7-0.7-0.7
				c-0.3,0-0.6,0.3-1.4,1.8c-0.1,0.2-0.3,0.5-0.5,1l-0.7,1.3c-0.3,0.5-0.5,0.9-0.6,1.2c0-0.5,0.1-1.4,0.2-2.7c0-2.3,0-2.3-0.1-2.4
				c-0.2-0.3-0.4-0.4-0.8-0.2c-0.4,0.1-0.6,0.4-0.6,0.7c0,0.1,0,1.3,0.1,3.7c0.1,2.4,0.1,3.6,0.1,3.8c0,0.1,0,0.6,0,1.3
				c0,0.8,0,1.4,0,1.9c0,0.6,0,1.2-0.1,1.8c0,0.6,0,0.9,0,1.1c0,0.4,0,1.3,0.7,1.3c0.6,0,0.6-0.8,0.6-1.2v-0.7c0-0.3,0-0.5,0-0.6
				c0-0.5,0.1-1.8,0.1-3.8c0-0.1,0-0.1,0-0.2c0.2,0.5,0.5,1.3,0.8,2.2c0.5,1.4,1,2.6,1.6,3.7c0.1,0.3,0.4,0.6,0.7,0.6l0.1,0
				c0.3-0.1,0.6-0.3,0.5-0.9C50.9,23.8,50.9,23.6,50.2,22.3z"/>
			<path class="st18" d="M53.9,11.6c0,0,0,0.3,0,0.7c0,0.4,0,0.8,0,1.2c0,0.6,0,1.5,0,2.6l0,4.1l0,3.5c0,0.2,0,0.9,0.5,1
				c0.1,0,0.1,0,0.2,0c0.3,0,0.5-0.1,0.6-0.4c0.1-0.1,0.1-0.2,0-1.9l0-0.8c0-2.8,0-4.5,0-5c0.1-0.1,0.3-0.2,0.8-0.4
				c0.3-0.1,0.6-0.4,0.9-0.7c0.4-0.4,0.6-0.8,0.7-1.2c0.2-0.7,0.3-1.4,0.3-2c0-0.6-0.2-1.3-0.6-2c-0.3-0.4-0.6-0.7-1-0.9
				C55.8,9.1,55.4,9,54.9,9c-0.8,0-0.9,0.5-0.9,0.6c0,0.4,0,0.9,0,1.3C53.9,11.1,53.9,11.3,53.9,11.6z M55.2,13c0-1.6,0-2.2,0-2.4
				c0,0,0.1,0,0.2,0c0.4,0.1,0.7,0.4,0.8,0.8c0.2,0.6,0.3,1.1,0.3,1.7c-0.1,0.7-0.3,1.2-0.8,1.6c-0.2,0.1-0.3,0.2-0.6,0.3
				C55.2,14.8,55.2,14.1,55.2,13z"/>
			<path class="st18" d="M63.4,24.7L63.4,24.7c0.5,0,1-0.2,1.4-0.6c0.2-0.2,0.4-0.6,0.7-1.1c0.2-0.6,0.4-1.4,0.6-2.3
				c0-0.3,0.1-1.1,0.2-2.6c0-1.7,0-3.3-0.2-4.8c0-0.4-0.2-1.2-0.6-2.3c-0.2-0.7-0.5-1.2-0.8-1.5C64.3,9.2,63.9,9,63.3,9
				c-0.5,0-1,0.2-1.3,0.5c-0.3,0.3-0.5,0.8-0.7,1.4c-0.2,0.5-0.3,1.3-0.4,2.3c0,0.3-0.1,1.3-0.1,3.1c0,0.5,0,1.4,0.1,2.6
				c0.1,1.6,0.2,2.6,0.3,3.1c0.2,0.9,0.4,1.5,0.6,1.8C62.3,24.4,62.8,24.7,63.4,24.7z M63.4,10.3V9.9l0,0L63.4,10.3
				c0.3,0,0.6,0.2,0.8,0.7c0,0.1,0.2,0.3,0.4,1.4c0.1,0.5,0.2,1.1,0.2,1.8c0,0.9,0.1,1.6,0.1,2.1c0,0.4,0,0.7,0,0.8
				c0,0.5,0,1.5-0.1,3c-0.1,0.8-0.2,1.6-0.5,2.4c-0.2,0.5-0.5,1-0.9,1c-0.1,0-0.4,0-0.6-0.6c0,0-0.1-0.3-0.4-1.6
				c-0.1-0.6-0.2-1.4-0.3-2.5c-0.1-0.7-0.1-1.9,0-3.5C62.3,10.6,63.1,10.3,63.4,10.3z"/>
			<path class="st18" d="M72.9,24.1c0-0.2,0-0.5-0.1-0.9c-0.8-4.1-1.3-6.4-1.3-7.1c0-0.1,0.1-0.6,0.6-3.2c0.3-1.4,0.5-2.3,0.6-2.7
				c0.1-0.2,0.1-0.4,0-0.7C72.7,9,72.3,9,72.2,9c-0.2,0-0.5,0.1-0.7,0.5l-0.1,0.1c0,0,0,0.1,0,0.1l0.4,0.1l0,0l-0.4,0
				c0,0.1-0.4,2.3-0.5,3c-0.1,0.4-0.1,0.7-0.2,1c-0.1-0.3-0.1-0.7-0.2-1.2c-0.6-3.4-0.8-3.5-1-3.6c-0.4-0.1-0.8,0.1-0.9,0.5
				c0,0.1,0,0.2,0.2,1.2c0.3,1.3,0.5,2.1,0.6,2.6c0.3,1.7,0.5,2.6,0.5,2.6c0,0.1,0,0.4-0.3,1.9c0,0-0.1,0.4-0.1,1
				c-0.1,0.5-0.2,1-0.2,1.5c-0.1,0.4-0.2,0.9-0.3,1.5c-0.1,0.6-0.1,0.9-0.2,0.9c-0.1,0.5-0.2,0.9-0.3,1.3c0,0.2,0,0.4,0.1,0.5
				c0.1,0.1,0.2,0.2,0.4,0.2l0,0c0.2,0,0.4-0.1,0.6-0.3c0.1-0.1,0.1-0.3,0.3-1.1l0,0c0,0,0,0,0-0.1h0l0,0c0-0.2,0.1-0.5,0.1-0.9
				c0.1-0.7,0.2-1.3,0.3-1.9c0.1-0.8,0.3-1.4,0.3-2c0.1,0.6,0.2,1.3,0.4,2.3c0.3,1.9,0.4,2.8,0.5,3.2h0c0,0.3,0.2,0.6,0.7,0.6
				C72.6,24.7,72.9,24.6,72.9,24.1z M72,24.1L72,24.1L72,24.1L72,24.1z"/>
			<path class="st18" d="M78.4,23.5c-0.6,0-1,0-1.1,0c0-0.1-0.1-0.4-0.1-1c0-0.3,0.1-2.3,0.2-5.8c0.1,0,0.1,0,0.2,0c0.1,0,0.4,0,1,0
				c0.2,0,0.3-0.1,0.4-0.2c0.2-0.2,0-0.5,0-0.6c-0.2-0.3-0.4-0.5-0.7-0.5l-0.6,0c-0.2,0-0.3,0-0.4,0c0-0.3-0.1-0.9-0.1-2.2l-0.1-2.9
				c0.1,0,0.4-0.1,0.9,0c1.1,0,1.6,0,1.8-0.4c0.1-0.2,0.1-0.3,0-0.5C79.7,9.1,79.3,9,79.1,9c-0.1,0-0.3,0-0.5,0l-0.3,0
				c-0.3,0-0.8,0-1.6,0c-0.2,0-0.4,0.1-0.6,0.3c-0.2,0.3-0.3,0.7-0.3,1.4c0.1,1.2,0.2,4.2,0.2,8.9c0,0.3,0,1,0,2c0,0.9,0,1.4,0,1.6
				c0,1.3,0,1.3,0.1,1.4l0.1,0.1c0.2,0.1,0.5,0.1,1.2,0.1c0.5,0,0.9,0,1.2,0c1,0,1.3-0.1,1.4-0.3l0.1-0.1v-0.1
				C80.2,23.6,79.6,23.4,78.4,23.5z"/>
			<path class="st18" d="M50.2,31.9c0-0.5,0-1,0-1.5c0-0.2,0-0.3,0-0.5l0-0.3c0-0.3,0-1.1-0.6-1.1c-0.3,0-0.6,0.2-0.6,0.7
				c0.1,4,0,5.3,0,5.7c-0.1,0-0.3,0-0.7,0l-0.2,0c-0.6,0-0.8,0-1-0.1c0-0.3-0.1-1.3,0-4.4c0-0.5,0-1,0-1.4c0-0.4-0.3-0.6-0.7-0.6
				c-0.3,0-0.6,0.2-0.6,0.7c-0.1,1.2-0.1,4.7,0,10.3c0,0.2,0,0.7,0,1.4c0,0.6,0,1.1,0,1.4c0,0.6,0,1,0,1.2l-0.1,0.1l0.1,0.2
				c0.1,0.3,0.4,0.5,0.7,0.5c0.3,0,0.6-0.2,0.6-0.7c0-2.1,0-3.4,0-3.7c0-0.6,0-1.4,0-2.5c0-0.7,0-1.1,0-1.3c0.2,0,0.5-0.1,1.3-0.1
				c0.2,0,0.4,0,0.5,0c0,0.5,0,2.2,0,7.4c0,0.8,0.5,0.8,0.7,0.8c0.3,0,0.5-0.1,0.6-0.3c0.1-0.1,0.1-0.3,0.1-0.5c0-2.1,0-3.9-0.1-5.2
				C50.2,35.4,50.2,33.2,50.2,31.9z"/>
			<path class="st18" d="M58.9,37.4c-0.1-0.5-0.1-1.2-0.2-1.9c-0.1-0.6-0.1-1-0.1-1.1c0-0.1,0-0.4-0.2-1.3c-0.2-0.9-0.3-1.4-0.3-1.6
				c-0.1-0.6-0.3-1.2-0.5-2c-0.2-0.6-0.5-0.9-0.9-0.9c-0.5,0-0.7,0.5-0.9,1.4c-0.1,0.3-0.2,0.6-0.2,0.8c-0.1,0.2-0.1,0.6-0.2,1.2
				c-0.3,2.1-0.5,3.3-0.5,3.6c-0.1,0.6-0.3,1.6-0.4,2.9C54.1,39.8,54,40.7,54,41c-0.4,2.7-0.4,2.8-0.3,2.9c0.2,0.3,0.5,0.4,0.8,0.4
				c0.1,0,0.5-0.1,0.5-0.7c0,0,0-0.1,0-0.3c0-0.2,0-0.3,0-0.4c0-0.5,0.1-1.2,0.3-2c0.1-0.4,0.1-0.4,0.1-0.4h0
				c0.4-0.2,0.9-0.2,1.5-0.1c0.5,0.1,0.7,0.1,0.8,0.2c0.2,1.1,0.3,2.2,0.1,3.3c0,0.2,0,0.3,0.1,0.4c0.1,0.1,0.3,0.2,0.5,0.2
				c0,0,0.1,0,0.2,0c0.2,0,0.4-0.2,0.6-0.4c0.1-0.1,0.1-0.3,0.1-0.5l0-0.2C59.2,41.4,59.1,39.4,58.9,37.4z M57.6,39
				C57.4,39,57,39,56.1,39c-0.2,0-0.5,0-0.7,0c0-0.1,0-0.2,0.1-0.4c0-0.2,0.1-0.7,0.2-1.5c0.1-0.9,0.2-1.6,0.3-2.1
				c0.1-0.5,0.2-1.1,0.4-1.8c0.1-0.7,0.2-1.1,0.2-1.3c0.1-0.3,0.1-0.6,0.1-0.8c0.1,0.5,0.3,1.3,0.4,2.5C57.5,35.9,57.6,37.7,57.6,39
				z"/>
			<path class="st18" d="M69.5,42.5c-0.2-0.6-0.4-1-0.7-1.2c-0.1-0.1-0.3-0.1-0.5-0.2c0-0.5,0-1.3,0-2.4c0-2.5,0-3.8,0-3.9l0-2.6
				c0.1-2.4-0.2-3-0.4-3.3c-0.2-0.2-0.6-0.3-1.9-0.3c-1.8,0-2.1,0.2-2.3,0.4c-0.2,0.2-0.3,0.3-0.2,3.3l0,2.6c0,0.1,0,1.4,0,3.9
				c0,1.1-0.1,1.9,0,2.4c-0.2,0-0.3,0.1-0.4,0.2c-0.3,0.2-0.5,0.6-0.7,1.2c-0.1,0.2-0.1,0.4-0.2,0.6l0,0l-0.1,0.4
				c0,0.2-0.1,0.5,0.1,0.7c0.2,0.3,0.7,0.2,0.8,0.1c0.3-0.2,0.3-0.5,0.4-0.6c0-0.2,0.1-0.4,0.1-0.6c0.1-0.3,0.1-0.5,0.2-0.5
				c0,0,0.1-0.1,0.6-0.1h0.3c0.1,0,0.3,0,0.8,0c0.9,0,1.1,0,1.3,0c0.1,0,0.2,0,0.3,0c0.1,0,0.2,0,0.3,0h0.3c0.5,0,0.7,0.1,0.7,0.1
				c0.1,0.1,0.1,0.2,0.2,0.6c0.1,0.2,0.1,0.5,0.1,0.6c0,0.1,0.1,0.5,0.3,0.6c0.1,0.1,0.3,0.1,0.5,0.1c0.2,0,0.3-0.1,0.4-0.2
				c0.2-0.2,0.1-0.5,0.1-0.7C69.8,43.2,69.7,42.9,69.5,42.5z M67,38.2c0,0.2,0,0.7,0,1.5l0,1.4h-0.6c-0.1,0-0.4,0-1,0
				c-0.3,0-0.5,0-0.7,0c0-0.5,0-1.4,0.1-2.9c0-0.6,0-1.5,0-2.8l0-1.2c0-1.1,0-1.9,0-2.2c0-1.3,0.1-1.8,0.1-2c0.1,0,0.4-0.1,1-0.1
				c0.1,0,0.2,0,0.3,0c0.1,0,0.1,0,0.2,0h0.2c0.1,0,0.1,0,0.2,0c0,0,0,0,0,0c0,0.2,0.1,0.6,0.1,2c0,0.4,0,1.1,0,2.2l0,1.2
				C67,36.7,67,37.6,67,38.2z"/>
			<path class="st18" d="M77.3,30.5c-0.2-0.7-0.5-1.2-0.8-1.5c-0.3-0.3-0.7-0.5-1.3-0.5c-0.5,0-1,0.2-1.3,0.5
				c-0.3,0.3-0.5,0.8-0.7,1.4c-0.2,0.5-0.3,1.3-0.4,2.3c0,0.3-0.1,1.3-0.1,3.1c0,0.5,0,1.4,0.1,2.6c0.1,1.6,0.2,2.6,0.3,3.1
				c0.2,0.9,0.4,1.5,0.6,1.8c0.4,0.6,0.9,0.9,1.5,1l0.1,0c0.5,0,0.9-0.2,1.3-0.6c0.2-0.2,0.4-0.6,0.7-1.1c0.2-0.6,0.4-1.4,0.6-2.3
				c0-0.3,0.1-1.1,0.2-2.6c0-1.7,0-3.3-0.2-4.8C77.8,32.5,77.6,31.7,77.3,30.5z M75.2,43c-0.1,0-0.4,0-0.6-0.6c0,0-0.1-0.3-0.4-1.6
				c-0.1-0.6-0.2-1.4-0.3-2.5c-0.1-0.7-0.1-1.9,0-3.5c0.1-4.6,1-5,1.2-5v-0.4l0,0l0,0.4c0.3,0,0.5,0.2,0.8,0.7
				c0,0.1,0.2,0.3,0.4,1.4c0.1,0.5,0.2,1.1,0.2,1.8c0,0.9,0.1,1.6,0.1,2.1c0,0.4,0,0.7,0,0.8c0,0.5,0,1.5-0.1,3
				c-0.1,0.8-0.2,1.6-0.5,2.4C75.9,42.5,75.6,43,75.2,43z"/>
		</g>
	</g>
</g>
<g id="help">
</g>
<g id="img_x5F_content">
</g>
<g id="Layer_7">
</g>
</svg>
